<svg width="987" height="575" viewBox="0 0 987 575" fill="none" xmlns="http://www.w3.org/2000/svg">
<path d="M57.1762 96.1047L48.2551 106.242L313.456 403.883L594.471 183.694L826.014 502.827L905.088 415.237L594.471 96.1047L313.456 339.813L57.1762 96.1047Z" fill="url(#paint0_linear_48_79)"/>
<circle cx="845.073" cy="432.269" r="141.927" fill="url(#paint1_linear_48_79)"/>
<path d="M793.68 266.24C792.352 266.24 791.12 266.072 789.984 265.736C788.848 265.384 787.888 264.912 787.104 264.32L788.04 261.896C788.824 262.456 789.68 262.888 790.608 263.192C791.552 263.496 792.576 263.648 793.68 263.648C794.944 263.648 795.864 263.44 796.44 263.024C797.016 262.592 797.304 262.04 797.304 261.368C797.304 260.808 797.096 260.368 796.68 260.048C796.28 259.728 795.584 259.464 794.592 259.256L791.952 258.704C788.944 258.064 787.44 256.52 787.44 254.072C787.44 253.016 787.72 252.096 788.28 251.312C788.84 250.528 789.616 249.92 790.608 249.488C791.6 249.056 792.744 248.84 794.04 248.84C795.192 248.84 796.272 249.016 797.28 249.368C798.288 249.704 799.128 250.184 799.8 250.808L798.864 253.112C797.536 251.992 795.92 251.432 794.016 251.432C792.912 251.432 792.048 251.664 791.424 252.128C790.8 252.592 790.488 253.2 790.488 253.952C790.488 254.528 790.68 254.992 791.064 255.344C791.448 255.68 792.104 255.944 793.032 256.136L795.648 256.688C797.232 257.024 798.408 257.552 799.176 258.272C799.96 258.992 800.352 259.952 800.352 261.152C800.352 262.16 800.08 263.048 799.536 263.816C798.992 264.584 798.216 265.184 797.208 265.616C796.216 266.032 795.04 266.24 793.68 266.24ZM802.989 266V249.08H814.245V251.528H805.941V256.184H813.717V258.632H805.941V263.552H814.245V266H802.989ZM825.422 266.24C823.55 266.24 821.966 265.888 820.67 265.184C819.39 264.48 818.414 263.48 817.742 262.184C817.07 260.888 816.734 259.352 816.734 257.576C816.734 255.784 817.078 254.24 817.766 252.944C818.454 251.632 819.446 250.624 820.742 249.92C822.038 249.2 823.59 248.84 825.398 248.84C826.582 248.84 827.694 249.016 828.734 249.368C829.774 249.704 830.638 250.176 831.326 250.784L830.294 253.184C829.542 252.592 828.774 252.168 827.99 251.912C827.206 251.656 826.342 251.528 825.398 251.528C823.606 251.528 822.246 252.048 821.318 253.088C820.406 254.128 819.95 255.624 819.95 257.576C819.95 259.544 820.422 261.04 821.366 262.064C822.31 263.088 823.71 263.6 825.566 263.6C826.094 263.6 826.63 263.56 827.174 263.48C827.734 263.384 828.286 263.248 828.83 263.072V259.136H824.942V256.856H831.398V264.992C830.614 265.376 829.686 265.68 828.614 265.904C827.542 266.128 826.478 266.24 825.422 266.24ZM841.989 266.24C839.669 266.24 837.893 265.64 836.661 264.44C835.445 263.224 834.837 261.432 834.837 259.064V249.08H837.909V259.04C837.909 260.56 838.253 261.704 838.941 262.472C839.645 263.224 840.661 263.6 841.989 263.6C844.693 263.6 846.045 262.08 846.045 259.04V249.08H849.093V259.064C849.093 261.432 848.493 263.224 847.293 264.44C846.093 265.64 844.325 266.24 841.989 266.24ZM852.676 266V249.08H855.748V266H852.676ZM859.474 266V249.08H862.042L868.042 260.144L874.018 249.08H876.538V266H873.754V254.6L868.906 263.432H867.106L862.258 254.648V266H859.474ZM880.262 266V249.08H883.334V266H880.262ZM887.012 266V249.08H898.268V251.528H889.964V256.184H897.74V258.632H889.964V263.552H898.268V266H887.012ZM901.332 266V249.08H903.636L912.732 260.888V249.08H915.588V266H913.308L904.188 254.144V266H901.332ZM923.366 266V251.648H917.558V249.08H932.246V251.648H926.438V266H923.366ZM940.745 266.24C939.113 266.24 937.681 265.88 936.449 265.16C935.233 264.44 934.289 263.432 933.617 262.136C932.945 260.824 932.609 259.288 932.609 257.528C932.609 255.752 932.945 254.216 933.617 252.92C934.289 251.624 935.233 250.624 936.449 249.92C937.665 249.2 939.097 248.84 940.745 248.84C942.393 248.84 943.825 249.2 945.041 249.92C946.257 250.624 947.201 251.624 947.873 252.92C948.545 254.216 948.881 255.744 948.881 257.504C948.881 259.28 948.545 260.824 947.873 262.136C947.201 263.432 946.257 264.44 945.041 265.16C943.825 265.88 942.393 266.24 940.745 266.24ZM940.745 263.6C942.297 263.6 943.505 263.064 944.369 261.992C945.233 260.92 945.665 259.432 945.665 257.528C945.665 255.608 945.233 254.12 944.369 253.064C943.521 252.008 942.313 251.48 940.745 251.48C939.193 251.48 937.985 252.008 937.121 253.064C936.257 254.12 935.825 255.608 935.825 257.528C935.825 259.432 936.257 260.92 937.121 261.992C937.985 263.064 939.193 263.6 940.745 263.6Z" fill="#104A9E"/>
<path d="M898.038 453.23C897.726 452.107 898.412 450.548 899.067 449.425C899.268 449.09 899.486 448.768 899.723 448.458C905.326 440.132 908.323 430.326 908.332 420.291C908.425 391.531 884.157 368.199 854.15 368.199C827.98 368.199 806.145 386.01 801.029 409.654C800.264 413.158 799.877 416.735 799.875 420.322C799.875 449.113 823.207 473.069 853.214 473.069C857.987 473.069 864.413 471.634 867.937 470.667C871.462 469.7 874.956 468.421 875.86 468.078C876.787 467.728 877.77 467.549 878.761 467.548C879.842 467.543 880.913 467.756 881.912 468.171L899.598 474.441C899.985 474.605 900.395 474.71 900.814 474.753C901.476 474.753 902.111 474.49 902.579 474.022C903.047 473.554 903.31 472.92 903.31 472.258C903.288 471.972 903.236 471.69 903.154 471.415L898.038 453.23Z" stroke="white" stroke-width="8" stroke-miterlimit="10" stroke-linecap="round"/>
<path d="M786.762 423.971C782.671 431.321 780.691 439.659 781.043 448.063C781.395 456.468 784.064 464.611 788.755 471.593C789.475 472.682 789.881 473.524 789.756 474.089C789.631 474.653 786.035 493.388 786.035 493.388C785.948 493.826 785.981 494.28 786.13 494.701C786.279 495.122 786.538 495.496 786.88 495.783C787.337 496.147 787.905 496.343 788.49 496.338C788.802 496.339 789.111 496.276 789.397 496.151L806.931 489.289C808.138 488.813 809.484 488.836 810.674 489.351C816.582 491.653 823.114 493.094 829.648 493.094C838.417 493.104 847.033 490.791 854.618 486.391" stroke="white" stroke-width="8" stroke-miterlimit="10" stroke-linecap="round"/>
<circle cx="603.392" cy="156.525" r="109.486" fill="url(#paint2_linear_48_79)"/>
<path d="M511.848 24V7.08H514.92V24H511.848ZM518.646 24V7.08H521.214L527.214 18.144L533.19 7.08H535.71V24H532.926V12.6L528.078 21.432H526.278L521.43 12.648V24H518.646ZM539.434 24V7.08H546.778C548.634 7.08 550.066 7.544 551.074 8.472C552.082 9.4 552.586 10.696 552.586 12.36C552.586 14.024 552.082 15.328 551.074 16.272C550.066 17.2 548.634 17.664 546.778 17.664H542.506V24H539.434ZM542.506 15.24H546.298C548.506 15.24 549.61 14.28 549.61 12.36C549.61 10.456 548.506 9.504 546.298 9.504H542.506V15.24ZM555.09 24V7.08H558.162V21.384H566.274V24H555.09ZM568.567 24V7.08H579.823V9.528H571.519V14.184H579.295V16.632H571.519V21.552H579.823V24H568.567ZM582.935 24V7.08H585.503L591.503 18.144L597.479 7.08H599.999V24H597.215V12.6L592.367 21.432H590.567L585.719 12.648V24H582.935ZM603.723 24V7.08H614.979V9.528H606.675V14.184H614.451V16.632H606.675V21.552H614.979V24H603.723ZM618.043 24V7.08H620.347L629.443 18.888V7.08H632.299V24H630.019L620.899 12.144V24H618.043ZM640.076 24V9.648H634.268V7.08H648.956V9.648H643.148V24H640.076ZM647.204 24L654.86 7.08H657.38L665.036 24H661.916L660.236 20.088H651.98L650.324 24H647.204ZM656.084 10.416L653.036 17.64H659.18L656.132 10.416H656.084ZM674.408 24.24C672.648 24.24 671.136 23.888 669.872 23.184C668.624 22.464 667.664 21.456 666.992 20.16C666.32 18.848 665.984 17.304 665.984 15.528C665.984 13.752 666.32 12.216 666.992 10.92C667.664 9.624 668.624 8.624 669.872 7.92C671.136 7.2 672.648 6.84 674.408 6.84C675.544 6.84 676.616 7.016 677.624 7.368C678.648 7.72 679.488 8.224 680.144 8.88L679.136 11.328C678.416 10.72 677.68 10.28 676.928 10.008C676.176 9.72 675.368 9.576 674.504 9.576C672.792 9.576 671.488 10.096 670.592 11.136C669.696 12.16 669.248 13.624 669.248 15.528C669.248 17.432 669.696 18.904 670.592 19.944C671.488 20.984 672.792 21.504 674.504 21.504C675.368 21.504 676.176 21.368 676.928 21.096C677.68 20.808 678.416 20.36 679.136 19.752L680.144 22.2C679.488 22.84 678.648 23.344 677.624 23.712C676.616 24.064 675.544 24.24 674.408 24.24ZM682.825 24V7.08H685.897V24H682.825ZM697.159 24.24C695.527 24.24 694.095 23.88 692.863 23.16C691.647 22.44 690.703 21.432 690.031 20.136C689.359 18.824 689.023 17.288 689.023 15.528C689.023 13.752 689.359 12.216 690.031 10.92C690.703 9.624 691.647 8.624 692.863 7.92C694.079 7.2 695.511 6.84 697.159 6.84C698.807 6.84 700.239 7.2 701.455 7.92C702.671 8.624 703.615 9.624 704.287 10.92C704.959 12.216 705.295 13.744 705.295 15.504C705.295 17.28 704.959 18.824 704.287 20.136C703.615 21.432 702.671 22.44 701.455 23.16C700.239 23.88 698.807 24.24 697.159 24.24ZM697.159 21.6C698.711 21.6 699.919 21.064 700.783 19.992C701.647 18.92 702.079 17.432 702.079 15.528C702.079 13.608 701.647 12.12 700.783 11.064C699.935 10.008 698.727 9.48 697.159 9.48C695.607 9.48 694.399 10.008 693.535 11.064C692.671 12.12 692.239 13.608 692.239 15.528C692.239 17.432 692.671 18.92 693.535 19.992C694.399 21.064 695.607 21.6 697.159 21.6ZM696.079 5.64L698.911 1.464H702.031L698.215 5.64H696.079ZM708.418 24V7.08H710.722L719.818 18.888V7.08H722.674V24H720.394L711.274 12.144V24H708.418Z" fill="#104A9E"/>
<path d="M565.159 140.305V122.057C565.159 119.368 565.998 116.79 567.492 114.889C568.986 112.988 571.012 111.919 573.124 111.919H588.236C589.809 111.92 591.346 112.512 592.655 113.623L598.199 118.326C599.507 119.437 601.045 120.03 602.617 120.03H633.66C635.772 120.03 637.798 121.098 639.292 122.999C640.786 124.9 641.625 127.479 641.625 130.167V140.305" stroke="white" stroke-width="6" stroke-linecap="round" stroke-linejoin="round"/>
<path d="M647.977 149.061L644.747 190.993C644.747 193.679 643.91 196.254 642.419 198.155C640.929 200.056 638.906 201.126 636.796 201.131H569.988C567.878 201.126 565.855 200.056 564.365 198.155C562.874 196.254 562.037 193.679 562.037 190.993L558.807 149.061C558.737 147.945 558.849 146.823 559.136 145.765C559.424 144.707 559.88 143.736 560.477 142.913C561.073 142.091 561.798 141.434 562.603 140.985C563.409 140.537 564.279 140.305 565.159 140.305H641.645C642.523 140.308 643.391 140.543 644.194 140.993C644.998 141.444 645.719 142.1 646.314 142.923C646.908 143.745 647.363 144.714 647.649 145.771C647.936 146.827 648.047 147.947 647.977 149.061V149.061Z" stroke="white" stroke-width="6" stroke-linecap="round" stroke-linejoin="round"/>
<circle cx="317.105" cy="339.002" r="89.2112" fill="url(#paint3_linear_48_79)"/>
<path d="M261.848 191V174.08H269.192C271.048 174.08 272.48 174.544 273.488 175.472C274.496 176.4 275 177.696 275 179.36C275 181.024 274.496 182.328 273.488 183.272C272.48 184.2 271.048 184.664 269.192 184.664H264.92V191H261.848ZM264.92 182.24H268.712C270.92 182.24 272.024 181.28 272.024 179.36C272.024 177.456 270.92 176.504 268.712 176.504H264.92V182.24ZM277.504 191V174.08H284.848C286.704 174.08 288.136 174.528 289.144 175.424C290.152 176.304 290.656 177.544 290.656 179.144C290.656 180.408 290.328 181.456 289.672 182.288C289.016 183.104 288.072 183.656 286.84 183.944C287.656 184.2 288.328 184.816 288.856 185.792L291.688 191H288.304L285.376 185.6C285.088 185.072 284.744 184.712 284.344 184.52C283.96 184.328 283.464 184.232 282.856 184.232H280.576V191H277.504ZM280.576 181.952H284.32C286.56 181.952 287.68 181.04 287.68 179.216C287.68 177.408 286.56 176.504 284.32 176.504H280.576V181.952ZM301.424 191.24C299.792 191.24 298.36 190.88 297.128 190.16C295.912 189.44 294.968 188.432 294.296 187.136C293.624 185.824 293.288 184.288 293.288 182.528C293.288 180.752 293.624 179.216 294.296 177.92C294.968 176.624 295.912 175.624 297.128 174.92C298.344 174.2 299.776 173.84 301.424 173.84C303.072 173.84 304.504 174.2 305.72 174.92C306.936 175.624 307.88 176.624 308.552 177.92C309.224 179.216 309.56 180.744 309.56 182.504C309.56 184.28 309.224 185.824 308.552 187.136C307.88 188.432 306.936 189.44 305.72 190.16C304.504 190.88 303.072 191.24 301.424 191.24ZM301.424 188.6C302.976 188.6 304.184 188.064 305.048 186.992C305.912 185.92 306.344 184.432 306.344 182.528C306.344 180.608 305.912 179.12 305.048 178.064C304.2 177.008 302.992 176.48 301.424 176.48C299.872 176.48 298.664 177.008 297.8 178.064C296.936 179.12 296.504 180.608 296.504 182.528C296.504 184.432 296.936 185.92 297.8 186.992C298.664 188.064 299.872 188.6 301.424 188.6ZM312.684 191V174.08H320.028C321.884 174.08 323.316 174.544 324.324 175.472C325.332 176.4 325.836 177.696 325.836 179.36C325.836 181.024 325.332 182.328 324.324 183.272C323.316 184.2 321.884 184.664 320.028 184.664H315.756V191H312.684ZM315.756 182.24H319.548C321.756 182.24 322.86 181.28 322.86 179.36C322.86 177.456 321.756 176.504 319.548 176.504H315.756V182.24ZM335.372 191.24C333.052 191.24 331.276 190.64 330.044 189.44C328.828 188.224 328.22 186.432 328.22 184.064V174.08H331.292V184.04C331.292 185.56 331.636 186.704 332.324 187.472C333.028 188.224 334.044 188.6 335.372 188.6C338.076 188.6 339.428 187.08 339.428 184.04V174.08H342.476V184.064C342.476 186.432 341.876 188.224 340.676 189.44C339.476 190.64 337.708 191.24 335.372 191.24ZM346.059 191V174.08H357.315V176.528H349.011V181.184H356.787V183.632H349.011V188.552H357.315V191H346.059ZM365.977 191.24C364.649 191.24 363.417 191.072 362.281 190.736C361.145 190.384 360.185 189.912 359.401 189.32L360.337 186.896C361.121 187.456 361.977 187.888 362.905 188.192C363.849 188.496 364.873 188.648 365.977 188.648C367.241 188.648 368.161 188.44 368.737 188.024C369.313 187.592 369.601 187.04 369.601 186.368C369.601 185.808 369.393 185.368 368.977 185.048C368.577 184.728 367.881 184.464 366.889 184.256L364.249 183.704C361.241 183.064 359.737 181.52 359.737 179.072C359.737 178.016 360.017 177.096 360.577 176.312C361.137 175.528 361.913 174.92 362.905 174.488C363.897 174.056 365.041 173.84 366.337 173.84C367.489 173.84 368.569 174.016 369.577 174.368C370.585 174.704 371.425 175.184 372.097 175.808L371.161 178.112C369.833 176.992 368.217 176.432 366.313 176.432C365.209 176.432 364.345 176.664 363.721 177.128C363.097 177.592 362.785 178.2 362.785 178.952C362.785 179.528 362.977 179.992 363.361 180.344C363.745 180.68 364.401 180.944 365.329 181.136L367.945 181.688C369.529 182.024 370.705 182.552 371.473 183.272C372.257 183.992 372.649 184.952 372.649 186.152C372.649 187.16 372.377 188.048 371.833 188.816C371.289 189.584 370.513 190.184 369.505 190.616C368.513 191.032 367.337 191.24 365.977 191.24ZM379.014 191V176.648H373.206V174.08H387.894V176.648H382.086V191H379.014ZM386.141 191L393.797 174.08H396.317L403.973 191H400.853L399.173 187.088H390.917L389.261 191H386.141ZM395.021 177.416L391.973 184.64H398.117L395.069 177.416H395.021ZM269.72 224.24C267.96 224.24 266.448 223.888 265.184 223.184C263.936 222.464 262.976 221.456 262.304 220.16C261.632 218.848 261.296 217.304 261.296 215.528C261.296 213.752 261.632 212.216 262.304 210.92C262.976 209.624 263.936 208.624 265.184 207.92C266.448 207.2 267.96 206.84 269.72 206.84C270.856 206.84 271.928 207.016 272.936 207.368C273.96 207.72 274.8 208.224 275.456 208.88L274.448 211.328C273.728 210.72 272.992 210.28 272.24 210.008C271.488 209.72 270.68 209.576 269.816 209.576C268.104 209.576 266.8 210.096 265.904 211.136C265.008 212.16 264.56 213.624 264.56 215.528C264.56 217.432 265.008 218.904 265.904 219.944C266.8 220.984 268.104 221.504 269.816 221.504C270.68 221.504 271.488 221.368 272.24 221.096C272.992 220.808 273.728 220.36 274.448 219.752L275.456 222.2C274.8 222.84 273.96 223.344 272.936 223.712C271.928 224.064 270.856 224.24 269.72 224.24ZM285.159 224.24C283.527 224.24 282.095 223.88 280.863 223.16C279.647 222.44 278.703 221.432 278.031 220.136C277.359 218.824 277.023 217.288 277.023 215.528C277.023 213.752 277.359 212.216 278.031 210.92C278.703 209.624 279.647 208.624 280.863 207.92C282.079 207.2 283.511 206.84 285.159 206.84C286.807 206.84 288.239 207.2 289.455 207.92C290.671 208.624 291.615 209.624 292.287 210.92C292.959 212.216 293.295 213.744 293.295 215.504C293.295 217.28 292.959 218.824 292.287 220.136C291.615 221.432 290.671 222.44 289.455 223.16C288.239 223.88 286.807 224.24 285.159 224.24ZM285.159 221.6C286.711 221.6 287.919 221.064 288.783 219.992C289.647 218.92 290.079 217.432 290.079 215.528C290.079 213.608 289.647 212.12 288.783 211.064C287.935 210.008 286.727 209.48 285.159 209.48C283.607 209.48 282.399 210.008 281.535 211.064C280.671 212.12 280.239 213.608 280.239 215.528C280.239 217.432 280.671 218.92 281.535 219.992C282.399 221.064 283.607 221.6 285.159 221.6ZM296.466 224V207.08H299.034L305.034 218.144L311.01 207.08H313.53V224H310.746V212.6L305.898 221.432H304.098L299.25 212.648V224H296.466ZM317.254 224V207.08H328.51V209.528H320.206V214.184H327.982V216.632H320.206V221.552H328.51V224H317.254ZM331.575 224V207.08H338.919C340.775 207.08 342.207 207.528 343.215 208.424C344.223 209.304 344.727 210.544 344.727 212.144C344.727 213.408 344.399 214.456 343.743 215.288C343.087 216.104 342.143 216.656 340.911 216.944C341.727 217.2 342.399 217.816 342.927 218.792L345.759 224H342.375L339.447 218.6C339.159 218.072 338.815 217.712 338.415 217.52C338.031 217.328 337.535 217.232 336.927 217.232H334.647V224H331.575ZM334.647 214.952H338.391C340.631 214.952 341.751 214.04 341.751 212.216C341.751 210.408 340.631 209.504 338.391 209.504H334.647V214.952ZM355.783 224.24C354.023 224.24 352.511 223.888 351.247 223.184C349.999 222.464 349.039 221.456 348.367 220.16C347.695 218.848 347.359 217.304 347.359 215.528C347.359 213.752 347.695 212.216 348.367 210.92C349.039 209.624 349.999 208.624 351.247 207.92C352.511 207.2 354.023 206.84 355.783 206.84C356.919 206.84 357.991 207.016 358.999 207.368C360.023 207.72 360.863 208.224 361.519 208.88L360.511 211.328C359.791 210.72 359.055 210.28 358.303 210.008C357.551 209.72 356.743 209.576 355.879 209.576C354.167 209.576 352.863 210.096 351.967 211.136C351.071 212.16 350.623 213.624 350.623 215.528C350.623 217.432 351.071 218.904 351.967 219.944C352.863 220.984 354.167 221.504 355.879 221.504C356.743 221.504 357.551 221.368 358.303 221.096C359.055 220.808 359.791 220.36 360.511 219.752L361.519 222.2C360.863 222.84 360.023 223.344 358.999 223.712C357.991 224.064 356.919 224.24 355.783 224.24ZM364.2 224V207.08H367.272V224H364.2ZM369.126 224L376.782 207.08H379.302L386.958 224H383.838L382.158 220.088H373.902L372.246 224H369.126ZM378.006 210.416L374.958 217.64H381.102L378.054 210.416H378.006ZM388.809 224V207.08H391.881V221.384H399.993V224H388.809Z" fill="#104A9E"/>
<path d="M294.802 321.846V314.984C294.802 309.524 297.152 304.288 301.335 300.427C305.517 296.566 311.19 294.397 317.105 294.397V294.397C323.02 294.397 328.693 296.566 332.876 300.427C337.058 304.288 339.408 309.524 339.408 314.984V321.846M276.217 321.846C275.231 321.846 274.285 322.208 273.588 322.851C272.891 323.495 272.5 324.368 272.5 325.278V371.599C272.5 378.084 278.484 383.608 285.51 383.608H348.701C355.726 383.608 361.711 378.352 361.711 371.867V325.278C361.711 324.368 361.319 323.495 360.622 322.851C359.925 322.208 358.979 321.846 357.994 321.846H276.217Z" stroke="white" stroke-width="6" stroke-linecap="round" stroke-linejoin="round"/>
<path d="M294.802 336.429V339.86C294.802 345.32 297.152 350.557 301.335 354.418C305.517 358.278 311.19 360.447 317.105 360.447C323.02 360.447 328.693 358.278 332.876 354.418C337.058 350.557 339.408 345.32 339.408 339.86V336.429" stroke="white" stroke-width="6" stroke-linecap="round" stroke-linejoin="round"/>
<circle cx="80.2901" cy="130.219" r="70.5579" fill="url(#paint4_linear_48_79)"/>
<path d="M1.848 35V18.08H8.136C10.968 18.08 13.152 18.808 14.688 20.264C16.24 21.72 17.016 23.808 17.016 26.528C17.016 29.232 16.24 31.32 14.688 32.792C13.152 34.264 10.968 35 8.136 35H1.848ZM4.92 32.456H7.944C11.848 32.456 13.8 30.48 13.8 26.528C13.8 22.592 11.848 20.624 7.944 20.624H4.92V32.456ZM20.1293 35V18.08H23.2013V35H20.1293ZM25.0553 35L32.7113 18.08H35.2313L42.8873 35H39.7673L38.0873 31.088H29.8313L28.1753 35H25.0553ZM33.9353 21.416L30.8873 28.64H37.0312L33.9833 21.416H33.9353ZM52.5231 35.24C50.6511 35.24 49.0671 34.888 47.7711 34.184C46.4911 33.48 45.5151 32.48 44.8431 31.184C44.1711 29.888 43.8351 28.352 43.8351 26.576C43.8351 24.784 44.1791 23.24 44.8671 21.944C45.5551 20.632 46.5471 19.624 47.8431 18.92C49.1391 18.2 50.6911 17.84 52.4991 17.84C53.6831 17.84 54.7951 18.016 55.8351 18.368C56.8751 18.704 57.7391 19.176 58.4271 19.784L57.3951 22.184C56.6431 21.592 55.8751 21.168 55.0911 20.912C54.3071 20.656 53.4431 20.528 52.4991 20.528C50.7071 20.528 49.3471 21.048 48.4191 22.088C47.5071 23.128 47.0511 24.624 47.0511 26.576C47.0511 28.544 47.5231 30.04 48.4671 31.064C49.4111 32.088 50.8111 32.6 52.6671 32.6C53.1951 32.6 53.7311 32.56 54.2751 32.48C54.8351 32.384 55.3871 32.248 55.9311 32.072V28.136H52.0431V25.856H58.4991V33.992C57.7151 34.376 56.7871 34.68 55.7151 34.904C54.6431 35.128 53.5791 35.24 52.5231 35.24ZM62.0589 35V18.08H64.3629L73.4589 29.888V18.08H76.3149V35H74.0349L64.9149 23.144V35H62.0589ZM87.5961 35.24C85.9641 35.24 84.5321 34.88 83.3001 34.16C82.0841 33.44 81.1401 32.432 80.4681 31.136C79.7961 29.824 79.4601 28.288 79.4601 26.528C79.4601 24.752 79.7961 23.216 80.4681 21.92C81.1401 20.624 82.0841 19.624 83.3001 18.92C84.5161 18.2 85.9481 17.84 87.5961 17.84C89.2441 17.84 90.6761 18.2 91.8921 18.92C93.1081 19.624 94.0521 20.624 94.7241 21.92C95.3961 23.216 95.7321 24.744 95.7321 26.504C95.7321 28.28 95.3961 29.824 94.7241 31.136C94.0521 32.432 93.1081 33.44 91.8921 34.16C90.6761 34.88 89.2441 35.24 87.5961 35.24ZM87.5961 32.6C89.1481 32.6 90.3561 32.064 91.2201 30.992C92.0841 29.92 92.5161 28.432 92.5161 26.528C92.5161 24.608 92.0841 23.12 91.2201 22.064C90.3721 21.008 89.1641 20.48 87.5961 20.48C86.0441 20.48 84.8361 21.008 83.9721 22.064C83.1081 23.12 82.6761 24.608 82.6761 26.528C82.6761 28.432 83.1081 29.92 83.9721 30.992C84.8361 32.064 86.0441 32.6 87.5961 32.6ZM86.5161 16.64L89.3481 12.464H92.4681L88.6521 16.64H86.5161ZM104.688 35.24C103.36 35.24 102.128 35.072 100.992 34.736C99.8558 34.384 98.8958 33.912 98.1118 33.32L99.0478 30.896C99.8318 31.456 100.688 31.888 101.616 32.192C102.56 32.496 103.584 32.648 104.688 32.648C105.952 32.648 106.872 32.44 107.448 32.024C108.024 31.592 108.312 31.04 108.312 30.368C108.312 29.808 108.104 29.368 107.688 29.048C107.288 28.728 106.592 28.464 105.6 28.256L102.96 27.704C99.9518 27.064 98.4478 25.52 98.4478 23.072C98.4478 22.016 98.7278 21.096 99.2878 20.312C99.8478 19.528 100.624 18.92 101.616 18.488C102.608 18.056 103.752 17.84 105.048 17.84C106.2 17.84 107.28 18.016 108.288 18.368C109.296 18.704 110.136 19.184 110.808 19.808L109.872 22.112C108.544 20.992 106.928 20.432 105.024 20.432C103.92 20.432 103.056 20.664 102.432 21.128C101.808 21.592 101.496 22.2 101.496 22.952C101.496 23.528 101.688 23.992 102.072 24.344C102.456 24.68 103.112 24.944 104.04 25.136L106.656 25.688C108.24 26.024 109.416 26.552 110.184 27.272C110.968 27.992 111.36 28.952 111.36 30.152C111.36 31.16 111.088 32.048 110.544 32.816C110 33.584 109.224 34.184 108.216 34.616C107.224 35.032 106.048 35.24 104.688 35.24ZM117.725 35V20.648H111.917V18.08H126.605V20.648H120.797V35H117.725ZM128.551 35V18.08H131.623V35H128.551ZM143.173 35.24C141.413 35.24 139.901 34.888 138.637 34.184C137.389 33.464 136.429 32.456 135.757 31.16C135.085 29.848 134.749 28.304 134.749 26.528C134.749 24.752 135.085 23.216 135.757 21.92C136.429 20.624 137.389 19.624 138.637 18.92C139.901 18.2 141.413 17.84 143.173 17.84C144.309 17.84 145.381 18.016 146.389 18.368C147.413 18.72 148.253 19.224 148.909 19.88L147.901 22.328C147.181 21.72 146.445 21.28 145.693 21.008C144.941 20.72 144.133 20.576 143.269 20.576C141.557 20.576 140.253 21.096 139.357 22.136C138.461 23.16 138.013 24.624 138.013 26.528C138.013 28.432 138.461 29.904 139.357 30.944C140.253 31.984 141.557 32.504 143.269 32.504C144.133 32.504 144.941 32.368 145.693 32.096C146.445 31.808 147.181 31.36 147.901 30.752L148.909 33.2C148.253 33.84 147.413 34.344 146.389 34.712C145.381 35.064 144.309 35.24 143.173 35.24ZM158.612 35.24C156.98 35.24 155.548 34.88 154.316 34.16C153.1 33.44 152.156 32.432 151.484 31.136C150.812 29.824 150.476 28.288 150.476 26.528C150.476 24.752 150.812 23.216 151.484 21.92C152.156 20.624 153.1 19.624 154.316 18.92C155.532 18.2 156.964 17.84 158.612 17.84C160.26 17.84 161.692 18.2 162.908 18.92C164.124 19.624 165.068 20.624 165.74 21.92C166.412 23.216 166.748 24.744 166.748 26.504C166.748 28.28 166.412 29.824 165.74 31.136C165.068 32.432 164.124 33.44 162.908 34.16C161.692 34.88 160.26 35.24 158.612 35.24ZM158.612 32.6C160.164 32.6 161.372 32.064 162.236 30.992C163.1 29.92 163.532 28.432 163.532 26.528C163.532 24.608 163.1 23.12 162.236 22.064C161.388 21.008 160.18 20.48 158.612 20.48C157.06 20.48 155.852 21.008 154.988 22.064C154.124 23.12 153.692 24.608 153.692 26.528C153.692 28.432 154.124 29.92 154.988 30.992C155.852 32.064 157.06 32.6 158.612 32.6Z" fill="#104A9E"/>
<path d="M43 143H54.5385L66.0769 93L77.6154 168L89.1538 124.25L94.9231 143H106.462" stroke="white" stroke-width="6" stroke-linecap="round" stroke-linejoin="round"/>
<path d="M112.231 149.25C115.417 149.25 118 146.452 118 143C118 139.548 115.417 136.75 112.231 136.75C109.044 136.75 106.462 139.548 106.462 143C106.462 146.452 109.044 149.25 112.231 149.25Z" stroke="white" stroke-width="6" stroke-linecap="round" stroke-linejoin="round"/>
<defs>
<linearGradient id="paint0_linear_48_79" x1="493.5" y1="37.712" x2="493.5" y2="479.713" gradientUnits="userSpaceOnUse">
<stop stop-color="#282828"/>
<stop offset="1" stop-color="#0090E8"/>
</linearGradient>
<linearGradient id="paint1_linear_48_79" x1="845.073" y1="290.342" x2="845.073" y2="574.196" gradientUnits="userSpaceOnUse">
<stop stop-color="#0090E8"/>
<stop offset="1" stop-color="#0DE3FF"/>
</linearGradient>
<linearGradient id="paint2_linear_48_79" x1="603.392" y1="47.0386" x2="603.392" y2="266.012" gradientUnits="userSpaceOnUse">
<stop stop-color="#0090E8"/>
<stop offset="1" stop-color="#0DE3FF"/>
</linearGradient>
<linearGradient id="paint3_linear_48_79" x1="317.105" y1="249.791" x2="317.105" y2="428.214" gradientUnits="userSpaceOnUse">
<stop stop-color="#0090E8"/>
<stop offset="1" stop-color="#0DE3FF"/>
</linearGradient>
<linearGradient id="paint4_linear_48_79" x1="80.2901" y1="59.6606" x2="80.2901" y2="200.776" gradientUnits="userSpaceOnUse">
<stop stop-color="#0090E8"/>
<stop offset="1" stop-color="#0DE3FF"/>
</linearGradient>
</defs>
</svg>
