<svg width="604" height="462" viewBox="0 0 604 462" fill="none" xmlns="http://www.w3.org/2000/svg">
<path d="M276.257 232.736H274.841V381.672H276.257V232.736Z" fill="#E0E0E0"/>
<path d="M376.985 232.736H375.57V381.672H376.985V232.736Z" fill="#E0E0E0"/>
<path d="M477.714 232.736H476.296V381.672H477.714V232.736Z" fill="#E0E0E0"/>
<path d="M198.951 214.384H174.824V218.268H198.951V214.384Z" fill="#D9D9D9"/>
<path d="M209.046 221.561H174.824V225.444H209.046V221.561Z" fill="#D9D9D9"/>
<path d="M302.79 214.384H274.465V218.268H302.79V214.384Z" fill="#D9D9D9"/>
<path d="M292.577 221.561H274.465V225.444H292.577V221.561Z" fill="#D9D9D9"/>
<path d="M394.536 214.384H376.985V218.268H394.536V214.384Z" fill="#D9D9D9"/>
<path d="M397.444 221.561H376.985V225.444H397.444V221.561Z" fill="#D9D9D9"/>
<path d="M503.279 214.384H477.711V218.268H503.279V214.384Z" fill="#D9D9D9"/>
<path d="M498.17 221.561H477.711V225.444H498.17V221.561Z" fill="#D9D9D9"/>
<path d="M291.576 390.495H275.55V395.671H291.576V390.495Z" fill="#B8B8B8"/>
<path d="M393.011 390.495H376.985V395.671H393.011V390.495Z" fill="#B8B8B8"/>
<g opacity="0.43">
<path opacity="0.43" d="M542.823 337.421C511.406 337.421 484.095 323.809 455.624 309.623C420.476 292.107 384.129 273.998 335.704 278.956C304.781 282.122 285.371 294.741 268.245 305.888C252.742 315.968 238.083 324.835 218.228 325.592C186.14 326.815 175.011 313.103 174.824 312.254V303.454C174.865 303.608 181.868 318.998 218.194 318.815C236.081 318.726 249.283 310.143 264.572 300.204C282.336 288.662 302.472 275.56 335.018 272.229C385.383 267.071 422.621 285.625 458.632 303.567C496.309 322.345 532.267 339.95 577.731 324.676V331.902C564.771 336.262 554.413 337.419 542.823 337.421Z" fill="url(#paint0_linear_32_253)"/>
</g>
<g opacity="0.22">
<path opacity="0.22" d="M354.251 335.734C331.061 335.734 312.667 320.105 294.66 304.808C281.007 293.21 266.842 281.349 250.492 275.499C200.579 257.644 175.06 290.245 174.832 290.532V280.616C175.088 280.277 179.654 274.35 192.831 268.694C204.826 263.541 224.949 259.432 252.708 269.107C270.295 275.237 284.9 287.646 299.037 299.648C327.69 323.991 352.436 345.013 395.409 312.085C427.96 287.144 458.632 263.374 488.835 254.692C518.363 246.2 549.147 252.415 577.964 281.29L577.751 290.298C516.54 228.689 464.422 267.727 399.515 317.458C382.301 330.632 367.486 335.734 354.251 335.734Z" fill="url(#paint1_linear_32_253)"/>
</g>
<path d="M371.288 197.156L370.266 195.955L387.234 181.469H397.539L420.918 161.508L435.541 173.992H446.325L451.777 178.645L468.709 164.189H477.304L512.939 133.769L513.963 134.971L477.885 165.769H469.29L451.777 180.722L445.744 175.572H434.96L420.918 163.583L398.117 183.048H387.812L371.288 197.156Z" fill="url(#paint2_linear_32_253)"/>
<path d="M373.74 177.149H367.876V175.569H373.087L381.892 166.746L388.294 173.161L403.587 157.835L408.292 162.55L423.801 147.009L433.092 156.322H443.686L460.04 139.935H474.141L484.568 129.488H497.331L509.993 116.799L511.107 117.915L497.983 131.068H485.221L474.796 141.515H460.692L444.339 157.902H432.439L423.801 149.245L408.292 164.784L403.587 160.069L388.294 175.395L381.892 168.98L373.74 177.149Z" fill="url(#paint3_linear_32_253)"/>
<path d="M530.352 180.74C530.352 180.707 530.332 180.674 530.324 180.64C515.243 127.934 477.596 82.8857 425.6 59.7038C394.172 45.6559 359.521 40.4449 325.363 44.6298H325.301H325.268C309.547 46.5968 294.135 50.5438 279.4 56.3771L279.313 56.4105C225.53 77.6173 182.15 123.235 165.983 183.444C138.851 284.502 198.575 388.42 299.38 415.606C351.146 429.564 403.667 420.576 446.2 394.86L454.135 405.91L491.554 378.907L482.521 366.338C505.809 342.937 522.551 313.813 531.069 281.886C540.317 247.459 539.48 212.681 530.352 180.74ZM391.941 353.809C325.097 377.814 251.495 342.98 227.55 276.007C204.042 210.278 237.084 138.014 301.5 112.67C302.718 112.19 303.949 111.723 305.193 111.279C336.391 100.026 370.727 101.331 400.984 114.922C431.853 128.739 457.273 154.678 469.582 189.084C470.546 191.793 471.42 194.51 472.203 197.238C490.658 261.938 456.062 330.778 391.931 353.809H391.941Z" fill="url(#paint4_linear_32_253)"/>
<path d="M567.574 170.001L530.314 180.64L472.195 197.243C471.417 194.507 470.543 191.788 469.574 189.086C457.268 154.673 431.848 128.744 400.977 114.927L425.582 59.7088L428.17 53.8992L441.395 24.2205C504.08 52.1525 549.432 106.47 567.574 170.001Z" fill="#007FE6"/>
<path d="M428.177 53.8942L425.59 59.7037L400.979 114.921C379.605 105.327 356.018 101.779 332.776 104.662L325.353 44.6425L324.585 38.3481C359.882 34.015 395.691 39.3899 428.172 53.8967L428.177 53.8942Z" fill="#0064B5"/>
<path d="M332.776 104.672C323.365 105.85 314.113 108.066 305.188 111.279C303.944 111.723 302.713 112.19 301.494 112.67L279.4 56.3874L272.709 39.3512C288.889 32.9354 305.815 28.5978 323.082 26.4419H323.121L324.59 38.338L325.358 44.6324L332.776 104.672Z" fill="#004E8C"/>
<path d="M308.234 13.3889C308.234 13.3889 305.549 8.44883 304.021 6.66877C302.493 4.88871 297.427 3.56264 298.108 1.28242C298.789 -0.997805 305.598 -4.74183e-05 307.471 2.22118C309.345 4.44241 315.058 5.23241 315.255 6.17117C315.452 7.10993 313.269 12.2424 312.045 13.0965C310.822 13.9506 308.234 13.3889 308.234 13.3889Z" fill="#6A75BA"/>
<path d="M296.821 17.5698C296.821 17.5698 292.446 14.1071 290.342 13.0812C288.238 12.0552 283.05 12.8529 282.784 10.4931C282.517 8.1334 289.147 6.33539 291.742 7.63068C294.338 8.92597 299.9 7.37418 300.445 8.15649C300.99 8.93879 301.029 14.5201 300.238 15.7769C299.447 17.0337 296.821 17.5698 296.821 17.5698Z" fill="#545D94"/>
<path d="M306.534 26.6188C306.534 26.6188 308.444 13.5377 308.357 11.2626C308.331 10.6162 312.286 10.8574 312.101 12.1039C311.7 14.8176 313.525 25.3338 313.207 27.2601C312.89 29.1863 306.371 27.8295 306.534 26.6188Z" fill="#EEA886"/>
<path d="M300.553 30.379C300.553 30.379 296.969 17.6723 296.14 15.5614C295.769 14.62 299.413 13.1632 299.91 14.8406C300.678 17.4723 306.458 26.4187 306.929 28.3116C307.4 30.2046 300.883 31.5486 300.553 30.379Z" fill="#EEA886"/>
<path d="M303.035 39.2074C303.035 39.2074 299.196 26.2237 298.602 24.8438L304.661 21.0913C304.661 21.0913 307.476 29.3837 307.863 31.4587C308.249 33.5338 303.035 39.2074 303.035 39.2074Z" fill="#D9D3C8"/>
<path d="M410.306 4.90161C410.306 4.90161 404.455 6.38414 401.67 10.8189C398.885 15.2537 396.479 20.3604 391.247 22.6766C386.016 24.9927 385.982 30.9664 386.384 31.8872C386.786 32.808 402.863 50.9113 406.37 51.6115C409.876 52.3117 416.444 51.8244 415.74 47.1716C415.036 42.5188 408.159 32.5131 412.021 27.4653C415.884 22.4175 416.856 17.7673 416.856 17.7673L410.306 4.90161Z" fill="#222538"/>
<path d="M409.282 26.552C409.133 26.5089 408.979 26.4814 408.824 26.4699C408.362 26.4266 407.896 26.4826 407.457 26.6341C407.271 26.7016 407.092 26.7875 406.922 26.8905C405.53 27.7113 402.241 29.9402 401.803 29.9941C401.291 30.0531 401.724 22.3609 401.724 22.3609C401.724 22.3609 403.475 19.2548 403.695 17.2105C403.915 15.1663 409.282 26.552 409.282 26.552Z" fill="#EEA886"/>
<path d="M368.119 34.5906C368.119 34.5906 361.689 30.0737 354.151 31.4793C346.613 32.8849 345.804 36.4219 343.214 36.5784C340.623 36.7348 331.979 35.9987 324.887 38.0712C317.794 40.1436 311.805 40.3668 310.993 39.7743C310.182 39.1818 315.426 27.3344 315.426 25.7031L306.642 23.4075C306.642 23.4075 304.131 33.9237 303.145 36.2937C302.091 38.8278 300.074 43.6012 302.948 47.7486C305.823 51.8961 313.886 50.0263 318.762 50.8625C323.638 51.6986 345.471 51.1626 349.282 50.9574C353.421 50.7342 365.92 50.1417 365.92 50.1417L368.119 34.5906Z" fill="#D9D3C8"/>
<path d="M420.924 11.1779C420.924 11.1779 421.336 17.5415 419.925 19.4498C419.572 19.9573 419.168 20.4274 418.72 20.8528C418.357 21.167 418.08 21.5687 417.916 22.0199C417.481 23.2434 417.212 24.967 416.867 25.3338C416.521 25.7006 415.39 24.7156 414.993 24.7131C414.596 24.7105 410.729 28.0475 409.802 27.3729C408.875 26.6983 403.234 20.9606 403.708 17.0131C404.181 13.0657 405.914 7.20229 412.27 7.2382C418.625 7.27411 420.437 9.59537 420.924 11.1779Z" fill="#EEA886"/>
<path d="M401.719 41.5518C401.596 41.8083 399.261 45.5531 396.699 47.723C395.637 48.6233 394.536 49.2619 393.541 49.2619C393.236 49.2619 392.939 49.2619 392.65 49.2619C389.714 49.3415 387.457 49.7929 383.489 49.9904C379.371 50.1981 369.375 49.621 369.079 49.621C368.782 49.621 365.902 50.134 365.902 50.134C364.878 48.8746 367.602 34.6572 368.119 34.5829C368.636 34.5085 371.958 35.7678 375.14 35.2497C378.321 34.7316 379.573 34.4341 384.303 28.881C389.033 23.3279 393.774 21.9198 395.757 22.3635C397.741 22.8073 401.719 22.3635 401.719 22.3635C401.719 22.3635 401.89 41.1824 401.719 41.5518Z" fill="#FFC955"/>
<path d="M418.254 15.7357C418.254 15.7357 419.439 18.8136 420.066 19.2343C420.066 19.2343 422.352 16.8104 420.883 10.8341C419.413 4.85784 413.89 4.29355 410.306 4.90144C405.855 5.65553 401.376 20.7424 401.604 22.2121C401.831 23.6818 406.823 14.4148 411.189 15.1612C415.556 15.9075 415.594 16.1589 418.254 15.7357Z" fill="#222538"/>
<path d="M408.824 26.47C408.361 26.4381 407.897 26.5018 407.46 26.6573C407.273 26.7188 407.092 26.8005 406.922 26.9009C405.899 25.303 404.954 21.5146 404.921 21.3889C405.604 22.8458 408.824 26.47 408.824 26.47Z" fill="#A77860"/>
<path d="M396.699 47.723C395.637 48.6233 394.536 49.2619 393.541 49.2619C393.236 49.2619 392.939 49.2619 392.65 49.2619L394.101 37.4761L396.699 47.723Z" fill="#C29941"/>
<path d="M419.695 68.0192L416.859 70.6046C414.412 69.2914 408.279 64.8669 407.099 63.8614C405.86 62.8047 397.611 55.8896 396.477 54.3122C395.343 52.7348 393.886 36.4449 394.032 35.6985C394.178 34.9521 401.199 34.5853 402.005 36.309C402.005 36.309 402.371 45.5991 402.561 47.156C402.741 48.729 403.38 50.2137 404.399 51.4241C405.87 53.2349 409.006 57.4388 412.044 60.8399C412.769 61.6504 418.753 67.201 419.695 68.0192Z" fill="#EEA886"/>
<path d="M402.581 36.5169C402.581 36.5169 403.024 24.1437 398.998 24.2976C393.922 24.4899 393.159 30.7099 393.85 37.4787C393.861 37.4787 401.447 37.5531 402.581 36.5169Z" fill="#FFC955"/>
<path d="M418.328 66.8086C418.556 67.1501 418.878 67.4175 419.255 67.5781C420.199 67.8987 421.597 67.2832 422.285 68.5246C422.974 69.766 419.646 72.8644 418.753 73.0517C417.86 73.2389 416.426 71.8436 415.305 69.094C414.184 66.3444 418.328 66.8086 418.328 66.8086Z" fill="#EEA886"/>
<path d="M421.993 68.1475C423.182 69.0733 424.322 70.0605 425.408 71.1048C426.916 72.5643 428.446 74.4803 428.06 74.8419C427.532 75.3344 426.503 73.6903 424.917 72.3386C423.452 71.0946 423.534 71.5691 423.534 71.5691C423.534 71.5691 423.519 71.4306 424.853 73.0824C426.288 74.8599 427.771 76.9683 427.328 77.2735C427.051 77.4659 427.038 77.5172 426.411 76.9503C426.703 77.3504 426.634 77.4813 426.48 77.6121C425.679 78.2841 423.153 75.9833 422.168 75.0702C422.935 75.7756 423.414 76.3732 422.641 76.463C421.753 76.5681 418.343 73.1619 417.01 72.0539C415.546 70.8535 421.993 68.1475 421.993 68.1475Z" fill="#EEA886"/>
<path d="M371.008 35.1575C371.008 35.1575 369.652 44.9042 370.32 49.6826C370.32 49.6826 371.026 50.2085 372.432 49.7852C372.432 49.7852 372.785 39.1562 373.571 35.3832C373.571 35.396 373.138 35.0549 371.008 35.1575Z" fill="#E0E0E0"/>
<path d="M535.356 353.398H555.697V351.97H535.356V353.398Z" fill="white"/>
<path d="M535.356 360.667H555.697V354.66H535.356V360.667Z" fill="white"/>
<path d="M525.804 363.586H537.803V362.689H525.804V363.586Z" fill="white"/>
<path d="M525.804 366.408H537.803V363.976H525.804V366.408Z" fill="white"/>
<path d="M559.035 361.098H559.931V344.267H559.035V361.098Z" fill="white"/>
<path style="mix-blend-mode:hard-light" d="M199.479 187.589H58.1544C54.8621 187.589 52.1931 190.263 52.1931 193.562V195.073C52.1931 198.372 54.8621 201.047 58.1544 201.047H199.479C202.771 201.047 205.44 198.372 205.44 195.073V193.562C205.44 190.263 202.771 187.589 199.479 187.589Z" fill="url(#paint5_linear_32_253)"/>
<path d="M286.736 385.781H364.553L340.027 461.254L342.32 462L367.876 383.362H284.985L259.676 461.254L261.969 462L286.736 385.781Z" fill="#616587"/>
<path d="M313.22 461.254L288.696 385.781H366.511L391.281 462L393.574 461.254L368.262 383.362H285.374L310.927 462L313.22 461.254Z" fill="#616587"/>
<path d="M374.74 407.128H279.497V409.545H374.74V407.128Z" fill="#616587"/>
<path d="M383.638 433.37H269.686V435.786H383.638V433.37Z" fill="#616587"/>
<path d="M325.731 213.525C325.731 213.525 327.669 210.124 324.592 201.008C321.618 192.19 311.318 192.99 308.045 198.638C304.771 204.286 305.879 207.795 310.696 214.174C315.513 220.553 323.73 216.441 325.731 213.525Z" fill="#EEA886"/>
<path d="M301.807 370.376C301.807 370.376 301.295 374.12 301.233 374.682C301.172 375.244 295.564 374.351 295.564 374.351L295.111 369.893C295.111 369.893 301.108 369.863 301.807 370.376Z" fill="#EEA886"/>
<path d="M301.295 374.223C301.295 374.223 303.071 376.48 304.789 377.463C306.506 378.445 309.207 378.837 310.22 379.856C310.955 380.589 312.892 383.752 305.756 383.688C298.62 383.623 295.182 384.136 294.42 382.918C293.657 381.7 295.525 373.967 295.525 373.967C295.525 373.967 297.271 374.451 301.295 374.223Z" fill="#152B3D"/>
<path d="M340.623 370.376C340.623 370.376 340.111 374.12 340.05 374.682C339.989 375.244 334.38 374.351 334.38 374.351L333.925 369.893C333.925 369.893 339.917 369.863 340.623 370.376Z" fill="#EEA886"/>
<path d="M340.109 374.223C340.109 374.223 341.885 376.48 343.603 377.463C345.32 378.445 351.642 379.258 352.659 380.284C353.391 381.018 354.612 383.975 344.573 383.698C337.439 383.503 333.996 384.147 333.234 382.928C332.471 381.71 334.339 373.977 334.339 373.977C336.25 374.248 338.182 374.33 340.109 374.223Z" fill="#152B3D"/>
<path d="M303.696 277.153C303.696 277.153 300.821 286.102 301.2 293.825C301.579 301.548 299.713 309.984 298.95 318.038C298.1 327.016 294.624 348.284 294.497 353.091C294.369 357.897 295.037 373.238 295.037 373.238L301.999 373.407C301.999 373.407 307.845 336.216 309.36 332.435C310.875 328.655 318.383 301.6 318.636 298.578C318.89 295.557 303.696 277.153 303.696 277.153Z" fill="#FFC05C"/>
<path d="M332.558 276.22C332.558 276.22 336.784 299.886 337.291 304.606C337.798 309.325 338.13 327.452 338.384 330.404C338.637 333.356 340.065 369.014 341.412 373.397H333.651C333.651 373.397 325.68 347.473 325.68 335.208C325.68 322.942 320.402 308.533 316.996 300.451C313.589 292.368 305.79 292.166 303.686 277.153C303.696 277.153 329.724 271.459 332.558 276.22Z" fill="#FFC05C"/>
<path d="M322.916 215.934C322.916 215.934 322.038 218.499 322.916 220.309C323.794 222.12 311.728 221.038 311.728 221.038C311.728 221.038 312.273 217.273 310.704 214.174C309.135 211.076 322.916 215.934 322.916 215.934Z" fill="#EEA886"/>
<path d="M303.135 279.103C303.135 279.103 307.487 283.568 332.947 278.407L332.558 276.22L303.601 277.312L303.135 279.103Z" fill="#FFC05C"/>
<path d="M324.741 220.902C324.741 220.902 329.195 221.356 330.469 221.599C331.744 221.843 340.311 220.06 342.067 219.881C343.823 219.701 351.32 214.554 351.563 213.946C351.806 213.338 356.124 202.383 356.368 200.016C356.611 197.648 360.573 198.869 360.233 200.5C359.595 203.555 358.781 210.968 358.333 213.115C357.85 215.423 356.542 220.689 355.827 221.322C355.113 221.956 348.351 227.114 341.75 229.302C337.696 230.656 333.81 232.469 330.167 234.706H297.599C297.599 234.706 284.934 216.564 284.662 213.833C284.391 211.101 293.508 192.931 295.326 190.654C297.143 188.376 299.774 191.397 299.774 191.397C299.774 191.397 294.328 207.418 293.598 209.696C292.869 211.973 299.938 221.982 301.876 222.007C303.813 222.033 308.787 221.399 311.011 221.307C313.235 221.215 315.557 220.245 315.557 220.245L324.741 220.902Z" fill="#EEA886"/>
<path d="M338.773 233.019C338.773 233.019 334.787 235.676 334.421 240.231C334.055 244.786 332.602 251.984 331.862 254.443C331.122 256.903 332.499 274.763 332.681 276.037C332.863 277.312 307.484 280.344 303.586 277.32C303.586 277.32 302.495 260.648 302.05 255.911C301.605 251.173 299.414 239.692 298.687 238.143C297.96 236.594 289.139 224.198 288.776 222.564C288.776 222.564 293.337 215.274 296.611 215.182C296.611 215.182 301.809 221.287 303.504 221.561C305.198 221.835 315.59 219.925 315.59 219.909C315.59 219.894 316.724 221.448 322.757 219.635C322.757 219.635 329.924 220.448 331.104 220.597C332.52 220.776 342.349 219.36 342.349 219.36C342.349 219.36 346.293 226.029 345.602 229.402L338.773 233.019Z" fill="#254380"/>
<path d="M356.137 201.439C356.137 201.439 357.028 197.215 355.955 196.004C355.346 195.314 353.88 193.485 353.746 193.219C353.613 192.952 352.037 192.044 352.037 191.605C352.037 191.167 353.572 190.633 354.919 191.875C356.265 193.116 357.094 193.385 357.632 193.252C358.169 193.119 358.937 188.653 359.004 187.545C359.07 186.437 359.498 183.518 360.189 183.718C360.88 183.918 360.847 185.196 360.847 185.196C360.847 185.196 361.651 182.979 362.186 183.418C362.72 183.857 362.656 184.926 362.656 184.926C362.656 184.926 363.66 183.685 363.936 184.593C364.094 185.152 364.094 185.744 363.936 186.304C363.936 186.304 364.96 185.732 365.042 187.142C365.124 188.553 364.74 192.68 364.003 194.157C363.266 195.635 360.509 199.498 360.179 201.006C359.849 202.514 356.137 201.439 356.137 201.439Z" fill="#EEA886"/>
<path d="M298.889 194.021C298.889 194.021 301.917 188.92 302.948 188.463C303.98 188.007 305.434 187.75 306.706 186.84C307.978 185.929 309.662 185.167 309.57 184.865C309.478 184.562 307.978 184.683 306.373 185.378C304.768 186.073 304.069 185.739 303.911 185.378C303.752 185.016 304.766 182.441 305.252 181.833C305.738 181.225 309.201 177.75 308.615 177.237C308.029 176.724 305.8 178.634 305.434 179.032C305.434 179.032 307.225 175.264 306.524 175.082C305.823 174.9 304.525 176.236 304.525 176.236C304.525 176.236 304.676 173.017 301.221 178.242C301.221 178.242 301.948 176.511 300.888 177.088C299.828 177.665 298.794 180.915 298.461 182.554C298.129 184.193 296.616 189.42 295.326 190.679C294.036 191.939 298.889 194.021 298.889 194.021Z" fill="#EEA886"/>
<path d="M310.696 214.171C310.696 214.171 312.293 214.313 315.687 213.146C319.082 211.978 319.335 206.023 320.07 206.733C321.567 208.17 322.982 207.179 323.548 206.328C323.548 206.328 321.892 204.143 322.66 203.088C323.226 202.373 323.908 201.757 324.677 201.267C324.677 201.267 322.289 189.725 311.423 194.988C298.707 201.134 310.696 214.171 310.696 214.171Z" fill="#353A3D"/>
<path d="M322.916 220.309L322.532 218.642C322.532 218.642 315.598 218.501 311.812 219.05L311.416 221.043C311.416 221.043 316.261 223.246 322.916 220.309Z" fill="#254380"/>
<path d="M321.203 205.266C320.574 204.217 318.245 203.509 317.971 206.479C317.758 208.788 322.133 211.299 322.174 209.152C322.215 207.005 321.623 205.964 321.203 205.266Z" fill="#EEA886"/>
<path d="M356.298 200.48C356.298 200.48 358.802 200.541 360.015 201.639C360.055 202.066 359.986 202.496 359.813 202.888C359.813 202.888 357.642 201.862 355.973 201.683C355.984 201.683 356.012 200.772 356.298 200.48Z" fill="#E55353"/>
<path d="M359.252 201.103C359.335 201.299 359.358 201.516 359.318 201.725C359.279 201.935 359.178 202.127 359.029 202.279C358.879 202.431 358.689 202.535 358.48 202.579C358.272 202.622 358.056 202.602 357.859 202.522C357.661 202.442 357.492 202.305 357.373 202.129C357.254 201.952 357.189 201.744 357.187 201.531C357.186 201.318 357.248 201.109 357.364 200.931C357.481 200.753 357.648 200.614 357.844 200.531C357.974 200.476 358.114 200.447 358.255 200.446C358.396 200.444 358.536 200.471 358.667 200.524C358.798 200.577 358.917 200.656 359.017 200.755C359.117 200.855 359.197 200.973 359.252 201.103Z" fill="#353A3D"/>
<path d="M556.919 259.583C556.919 259.583 554.699 259.881 554.715 258.94C554.73 257.998 554.884 256.77 554.884 256.77L556.919 259.583Z" fill="#EEA987"/>
<path d="M569.402 249.373L562.109 255.015C563.038 254.838 564.595 254.618 564.63 255.103C564.682 255.798 561.858 256.642 560.965 257.27C560.146 257.85 559.286 258.881 559.056 258.929L557.464 260.299L554.884 256.762C554.884 256.762 559.14 251.935 560.167 250.906C561.833 249.231 568.577 248.252 568.946 248.493C569.614 248.939 569.402 249.373 569.402 249.373Z" fill="#EEA987"/>
<path d="M560.402 260.543L554.515 255.551L534.355 275.986C531.197 278.161 540.511 285.656 543.143 287.292C549.903 291.491 557.876 301.212 566.148 295.285C575.107 288.857 562.053 284.286 557.702 284.397C553.929 284.494 545.712 277.061 545.712 277.061L560.402 260.543Z" fill="#2F4563"/>
<path d="M549.759 443.789C549.759 443.789 546.409 447.313 543.007 448.052C539.605 448.791 537.227 449.735 537.202 451.758C537.176 453.782 546.99 455.113 550.883 453.074C556.691 450.03 557.282 450.948 557.927 449.427C558.572 447.906 557.159 443.835 557.195 443.35C557.246 442.753 549.759 443.789 549.759 443.789Z" fill="#202338"/>
<path d="M550.136 442.101C550.136 442.101 549.693 443.753 549.759 443.789C549.826 443.825 557.423 444.676 557.182 443.35C556.995 442.276 556.729 441.109 556.729 441.109L550.136 442.101Z" fill="#2F6B8C"/>
<path d="M587.606 444.707C587.606 444.707 585.141 448.142 581.844 448.934C578.593 449.704 576.489 451.202 576.328 453.169C576.167 455.136 584.007 457.709 589.49 454.256C593.101 451.987 594.448 452.115 595.177 450.666C595.907 449.216 594.796 445.182 594.867 444.715C594.957 444.143 587.606 444.707 587.606 444.707Z" fill="#202338"/>
<path d="M587.708 443.009C587.708 443.009 587.544 444.671 587.606 444.707C587.667 444.743 594.911 446.031 594.867 444.723C594.807 443.929 594.653 443.146 594.409 442.388L587.708 443.009Z" fill="#2F6B8C"/>
<path d="M557.802 342.908C557.802 342.908 554.282 368.524 552.844 377.186C551.164 387.309 550.594 395.676 550.125 400.916C549.537 407.506 548.753 441.239 548.333 443.166C547.914 445.092 558.572 444.092 558.572 444.092C558.572 444.092 564.178 400.129 565.931 393.096C567.564 386.56 572.33 358.328 573.817 360.113C575.304 361.899 579.876 393.881 580.984 399.036C582.092 404.192 585.051 444.771 585.051 444.771C585.051 444.771 595.108 446.387 597.135 444.771C597.135 444.771 595.548 408.585 594.831 398.921C594.576 395.237 597.156 354.824 590.941 338.53C587.667 329.916 557.802 342.908 557.802 342.908Z" fill="#877D78"/>
<path d="M568.125 281.475C568.125 281.475 558.813 283.404 557.709 284.384C556.509 285.428 554.382 295.649 554.267 298.491C554.151 301.333 555.39 313.232 556.588 317.659C557.786 322.086 557.804 341.256 557.046 347.384C557.046 347.384 574.984 351.062 593.419 348.666C593.419 348.666 590.905 330.029 591.642 323.961C592.589 316.186 594.862 298.275 594.862 298.275C594.862 298.275 594.878 288.19 593.452 286.577C590.393 283.119 578.637 281.478 578.637 281.478L568.125 281.475Z" fill="#FFC05C"/>
<path d="M582.11 300.171C582.545 309.405 585.476 311.644 588.363 310.926C589.322 310.662 590.205 310.175 590.941 309.505C592.169 308.433 593.132 306.955 593.475 305.55C594.739 300.42 594.755 286.233 588.276 284.409C588.276 284.409 581.258 282.142 582.11 300.171Z" fill="#2F4563"/>
<path d="M554.259 304.365C554.259 304.365 559.455 303.5 559.772 311.051C560.09 318.602 563.356 332.628 568.664 338.216L547.758 339.012C542.444 333.423 539.823 320.031 539.436 312.49C539.07 305.55 533.923 305.804 533.923 305.804L554.259 304.365Z" fill="#F5E1D9"/>
<path d="M566.456 287.072C566.578 287.155 566.707 287.229 566.84 287.295C567.414 287.568 568.032 287.736 568.664 287.793C568.941 287.822 569.219 287.834 569.496 287.828C569.665 287.828 569.834 287.813 570.008 287.795C574.936 287.313 579.83 281.662 579.83 281.662C569.932 280.159 565.69 282.009 565.69 282.009C565.69 282.009 564.106 285.476 566.456 287.072Z" fill="#2F4563"/>
<path d="M568.572 252.902C568.572 252.902 556.862 250.547 559.87 265.172C562.877 279.798 565.706 280.888 572.668 277.679C579.63 274.47 578.77 265.075 579.013 260.453C579.256 255.831 572.292 252.961 568.572 252.902Z" fill="#EEA886"/>
<path d="M566.66 283.494C566.66 283.494 568.964 285.033 577.705 281.162C577.213 277.527 577.375 273.832 578.184 270.254C579.481 264.759 567.446 277.028 567.446 277.028C567.584 277.128 567.612 277.689 567.531 278.469C567.51 278.682 567.482 278.908 567.444 279.146C567.382 279.549 567.298 279.982 567.188 280.429C567.159 280.549 567.129 280.67 567.098 280.79C566.609 282.655 566.66 281.857 566.66 283.494Z" fill="#EEA886"/>
<path d="M578.621 267.991C578.621 267.991 578.035 264.049 576.343 263.946C574.651 263.844 574.17 266.255 574.17 266.255L572.844 266.391C572.844 266.391 573.392 262.218 571.69 261.548C569.988 260.879 560.801 263.154 559.419 261.997C558.037 260.84 558.72 253.138 561.139 251.953C563.558 250.768 570.011 247.541 575.038 250.781C575.038 250.781 578.877 250.247 579.53 253.346C580.183 256.444 579.615 265.647 578.621 267.991Z" fill="#353A3D"/>
<path d="M574.232 262.567C574.516 261.192 577.303 260.917 577.344 263.021C577.385 265.124 575.604 268.663 574.593 268.204C573.582 267.745 573.84 264.462 574.232 262.567Z" fill="#EEA886"/>
<path d="M577.705 279.503C577.705 279.503 573.136 282.265 568.616 282.889L571.022 286.736L578.639 281.478L577.705 279.503Z" fill="#4B6F9E"/>
<path d="M567.101 280.788C567.101 280.788 567.582 282.37 568.613 282.888L566.353 286.043L566.438 281.857L567.101 280.788Z" fill="#4B6F9E"/>
<path d="M568.613 282.888L566.822 285.387C566.822 285.387 567.953 286.821 570.405 285.733L568.613 282.888Z" fill="white"/>
<path d="M566.839 287.295C567.414 287.568 568.032 287.736 568.665 287.792C568.941 287.822 569.219 287.834 569.496 287.828L569.225 285.5H567.574C567.253 286.064 567.006 286.667 566.839 287.295Z" fill="white"/>
<path d="M567.139 280.639C572.32 280.913 575.639 275.527 575.737 275.371C572.483 278.933 567.443 279.146 567.443 279.146C567.382 279.549 567.244 280.195 567.139 280.639Z" fill="#A77860"/>
<path d="M554.259 304.365C554.259 304.365 548.036 304.944 549.352 313.644L530.882 314.645C530.882 314.645 528.322 308.717 533.923 305.803L554.259 304.365Z" fill="#EDDAD3"/>
<path d="M532.668 311.52L547.091 310.743L547.051 309.99L532.628 310.767L532.668 311.52Z" fill="#C9BAB3"/>
<path d="M533.901 308.186L548.324 307.409L548.284 306.656L533.861 307.433L533.901 308.186Z" fill="#C9BAB3"/>
<path d="M556.029 314.066L541.606 314.844L541.647 315.597L556.07 314.819L556.029 314.066Z" fill="#C9BAB3"/>
<path d="M557.834 319.135L543.411 319.913L543.451 320.666L557.874 319.888L557.834 319.135Z" fill="#C9BAB3"/>
<path d="M559.646 324.186L545.223 324.964L545.263 325.717L559.686 324.939L559.646 324.186Z" fill="#C9BAB3"/>
<path d="M561.448 329.255L547.025 330.032L547.065 330.785L561.488 330.008L561.448 329.255Z" fill="#C9BAB3"/>
<path d="M563.262 334.306L548.839 335.083L548.88 335.836L563.303 335.059L563.262 334.306Z" fill="#C9BAB3"/>
<path d="M570.267 320.616C570.267 320.616 569.466 320.995 568.772 320.806C567.572 320.48 566.548 318.808 564.979 319.667C563.41 320.526 564.723 326.282 565.524 327.126C566.325 327.97 568.764 327.475 571.82 325.279C574.877 323.083 570.267 320.616 570.267 320.616Z" fill="#EEA886"/>
<path d="M565.547 319.464C563.676 319.62 561.815 319.877 559.972 320.234C557.412 320.747 554.292 321.739 554.413 322.388C554.597 323.373 557.057 322.265 559.634 321.932C562.007 321.624 561.59 322.086 561.59 322.086C561.59 322.086 561.7 321.947 559.179 322.794C556.468 323.704 553.596 324.794 553.683 325.325C553.793 325.987 553.862 326.059 554.902 325.892C554.326 326.118 554.305 326.31 554.39 326.564C554.756 327.867 558.946 327.162 560.609 326.88C559.33 327.103 558.421 327.393 559.161 328.059C560.005 328.808 565.885 327.546 568.035 327.29C570.367 327.028 565.547 319.464 565.547 319.464Z" fill="#EEA886"/>
<path d="M586.211 284.592C584.309 285.217 583.293 287.911 584.45 293.502C585.729 299.686 587.163 302.692 587.987 304.149C588.811 305.606 593.273 313.065 592.456 314.245C591.64 315.425 580.869 318.233 580.137 318.443C578.675 318.859 568.903 320.813 568.903 320.813L571.296 329.201C571.296 329.201 601.051 324.112 602.5 322.66C603.949 321.208 604.704 319.244 603.101 314.173C601.474 309.02 598.548 296.957 598.028 296.013C597.509 295.069 594.783 281.77 586.211 284.592Z" fill="#2F4563"/>
<path d="M584.713 294.723C584.713 294.723 585.384 304.198 588.363 310.926C589.322 310.662 590.205 310.175 590.941 309.505C590.941 309.505 587.498 303.28 587.188 302.579C586.879 301.879 585.064 296.372 584.713 294.723Z" fill="#1E2C40"/>
<g style="mix-blend-mode:hard-light">
<path style="mix-blend-mode:hard-light" d="M195.524 209.76H61.2951C56.5099 209.76 52.6308 213.647 52.6308 218.442V309.351C52.6308 314.146 56.5099 318.033 61.2951 318.033H195.524C200.309 318.033 204.188 314.146 204.188 309.351V218.442C204.188 213.647 200.309 209.76 195.524 209.76Z" fill="url(#paint6_linear_32_253)"/>
</g>
<path d="M164.972 230.053H160.234V256.447H164.972V230.053Z" fill="url(#paint7_linear_32_253)"/>
<path d="M173.291 223.018H168.553V256.447H173.291V223.018Z" fill="url(#paint8_linear_32_253)"/>
<path d="M182.022 226.699H177.284V256.447H182.022V226.699Z" fill="url(#paint9_linear_32_253)"/>
<path d="M190.991 235.245H186.253V256.447H190.991V235.245Z" fill="url(#paint10_linear_32_253)"/>
<path d="M164.972 239.708H160.234V256.447H164.972V239.708Z" fill="#007BDE"/>
<path d="M173.291 235.245H168.553V256.447H173.291V235.245Z" fill="#007BDE"/>
<path d="M182.022 237.579H177.284V256.447H182.022V237.579Z" fill="#007BDE"/>
<path d="M190.991 243.25H186.253V256.447H190.991V243.25Z" fill="#007BDE"/>
<path d="M187.822 265.483H163.403C162.371 265.483 161.535 266.321 161.535 267.355V271.133C161.535 272.167 162.371 273.006 163.403 273.006H187.822C188.854 273.006 189.69 272.167 189.69 271.133V267.355C189.69 266.321 188.854 265.483 187.822 265.483Z" fill="white"/>
<path d="M187.822 279.569H163.403C162.371 279.569 161.535 280.408 161.535 281.442V285.22C161.535 286.254 162.371 287.092 163.403 287.092H187.822C188.854 287.092 189.69 286.254 189.69 285.22V281.442C189.69 280.408 188.854 279.569 187.822 279.569Z" fill="white"/>
<path d="M187.822 293.656H163.403C162.371 293.656 161.535 294.494 161.535 295.529V299.307C161.535 300.341 162.371 301.179 163.403 301.179H187.822C188.854 301.179 189.69 300.341 189.69 299.307V295.529C189.69 294.494 188.854 293.656 187.822 293.656Z" fill="white"/>
<path d="M147.923 248.701C146.073 243.517 143.222 238.75 139.534 234.67C135.845 230.591 131.391 227.28 126.425 224.925C121.459 222.571 116.08 221.22 110.593 220.949C105.106 220.678 99.6198 221.492 94.4472 223.346C89.2746 225.2 84.5171 228.057 80.4461 231.753C76.3752 235.449 73.0707 239.912 70.7212 244.888C68.3717 249.864 67.0233 255.255 66.7529 260.754C66.4826 266.252 67.2955 271.749 69.1454 276.933C69.4603 277.82 69.8058 278.695 70.1693 279.546C74.4917 289.531 82.5196 297.439 92.5555 301.6C102.591 305.76 113.849 305.846 123.947 301.84C134.045 297.834 142.193 290.05 146.667 280.133C151.141 270.216 151.592 258.944 147.923 248.701ZM119.094 292.402C111.605 295.094 103.374 294.83 96.0721 291.664C88.7701 288.498 82.9438 282.666 79.7755 275.353C79.4991 274.712 79.2431 274.058 79.0076 273.393C76.9182 267.54 76.6078 261.198 78.1157 255.168C79.6236 249.138 82.882 243.692 87.479 239.518C92.076 235.344 97.8049 232.63 103.941 231.719C110.078 230.808 116.346 231.74 121.953 234.399C127.56 237.058 132.255 241.324 135.443 246.656C138.631 251.989 140.169 258.149 139.863 264.358C139.557 270.567 137.42 276.545 133.723 281.537C130.026 286.529 124.935 290.31 119.094 292.402Z" fill="white"/>
<path d="M78.593 253.451L68.6105 250.322C71.2107 242.001 76.3313 234.699 83.2614 229.427C90.1915 224.156 98.5874 221.177 107.284 220.904L107.596 231.392C101.074 231.596 94.7778 233.829 89.5804 237.782C84.3831 241.735 80.5429 247.211 78.593 253.451Z" fill="#1A598C"/>
<path d="M79.7755 275.36L70.1744 279.546C69.8058 278.695 69.4603 277.82 69.1506 276.933C66.0716 268.361 65.8774 259.014 68.5977 250.322L78.5802 253.451C76.5405 259.967 76.6843 266.974 78.9897 273.401C79.2286 274.064 79.4906 274.717 79.7755 275.36Z" fill="#2273B5"/>
<path d="M76.6605 289.98C73.9953 286.843 71.8095 283.327 70.1744 279.546L79.7755 275.36C81.0016 278.195 82.6406 280.831 84.6388 283.183L76.6605 289.98Z" fill="#3788CC"/>
<path d="M190.602 440.655C190.602 440.655 189.066 443.522 188.068 444.658C187.069 445.795 183.23 447.831 183.204 451.209C183.181 454.872 189.67 453.856 192.207 453.72C194.743 453.584 194.935 451.63 196.005 449.555C197.075 447.48 198.15 447.834 198.35 446.159C198.549 444.484 197.326 440.655 197.326 440.655H190.602Z" fill="#202338"/>
<path d="M197.234 439.554C197.234 439.554 197.531 441.119 197.472 441.155C197.413 441.191 190.282 442.471 190.32 441.17C190.353 440.144 190.978 438.939 190.978 438.939L197.234 439.554Z" fill="#81807E"/>
<path d="M262.565 304.852C262.565 304.852 270.05 303.272 270.608 303.598C271.166 303.923 271.204 304.347 270.508 304.526C269.812 304.706 263.308 306.268 263.308 306.268C263.308 306.268 272.381 305.934 272.901 306.093C273.206 306.188 273.321 307.001 272.955 307.119C272.589 307.237 263.584 308.115 263.584 308.115C263.584 308.115 272.056 307.82 272.448 308.091C272.536 308.174 272.598 308.281 272.628 308.398C272.657 308.515 272.652 308.638 272.614 308.753C272.575 308.868 272.504 308.969 272.41 309.044C272.316 309.12 272.202 309.166 272.082 309.179C271.452 309.246 263.579 309.982 263.579 309.982C263.579 309.982 269.737 310.174 269.924 310.613C270.042 310.869 270.18 311.577 268.588 311.477C266.996 311.377 263.213 311.549 263.213 311.549L262.565 304.852Z" fill="#EEA886"/>
<path d="M229.257 440.119C229.257 440.119 232.382 443.617 235.556 444.351C238.73 445.084 240.952 446.018 240.975 448.024C240.998 450.029 231.84 451.358 228.208 449.332C222.786 446.31 222.236 447.221 221.634 445.713C221.033 444.204 222.356 440.165 222.318 439.685C222.269 439.09 229.257 440.119 229.257 440.119Z" fill="#202338"/>
<path d="M228.904 438.444C228.904 438.444 229.316 440.083 229.257 440.119C229.198 440.154 222.103 440.998 222.318 439.685C222.492 438.618 222.74 437.459 222.74 437.459L228.904 438.444Z" fill="#81807E"/>
<path d="M222.456 340.338C222.456 340.338 225.036 365.438 226.377 374.031C227.944 384.075 228.476 392.378 228.914 397.577C229.464 404.117 229.569 436.289 229.956 438.203C230.342 440.116 221.407 438.731 221.407 438.731C221.407 438.731 217.014 396.692 215.376 389.741C213.84 383.254 208.189 355.332 206.796 357.102C205.404 358.872 203.679 389.677 202.647 394.807C201.616 399.936 198.48 439.967 198.48 439.967C198.48 439.967 191.375 441.386 189.483 439.783C189.483 439.783 188.623 405.271 189.281 395.681C189.537 392.026 185.006 351.859 190.817 335.69C193.878 327.128 222.456 340.338 222.456 340.338Z" fill="#292C47"/>
<path d="M178.249 343.9C178.249 343.9 182.6 345.224 184.42 344.89C186.24 344.557 185.321 322.16 185.393 317.5C185.447 313.721 187.512 303.744 187.512 303.744C187.512 303.749 187.512 303.754 187.512 303.759C187.512 303.759 187.512 303.759 187.512 303.777C187.717 304.524 190.502 314.878 190.599 319.854C190.702 325.02 189.926 344.77 189.926 344.77L197.605 345.519L219.669 346.063L224.276 345.519C224.276 345.519 223.726 337.07 223.508 333.058C223.383 330.509 222.886 325.943 223.014 321.496C223.014 321.496 222.935 316.81 223.398 314.791C223.447 305.88 223.987 297.057 223.987 297.057C224.284 293.018 224.492 289.238 224.611 285.718C223.639 285.205 222.469 284.597 221.54 284.153C218.645 282.77 214.611 280.911 212.023 279.718C210.505 279.021 209.021 278.513 209.021 278.513C209.021 278.513 198.675 277.517 197.835 277.571C197.579 277.587 196.276 278.038 194.579 278.687C190.909 280.082 183.829 282.922 182.71 283.735C181.057 284.92 177.566 313.083 177.407 315.055C177.125 318.615 178.249 343.9 178.249 343.9Z" fill="#CAC7D1"/>
<path d="M223.611 342C223.611 342 208.468 343.282 195.199 342V346.36C195.199 346.36 215.115 349.241 224.268 345.529L223.611 342Z" fill="#1D2033"/>
<path d="M210.697 279.156C210.697 279.156 213.16 284.963 215.008 297.916C215.717 302.895 217.035 311.275 217.99 319.826C218.758 326.569 220.465 333.487 221.013 338.647C221.578 343.995 223.285 359.746 223.285 359.746L227.43 357.13C228.021 356.581 228.848 355.871 228.607 355.101C227.47 351.416 225.279 339.232 224 328.613C224 328.613 224 328.613 224 328.593C223.938 328.08 223.877 327.567 223.82 327.069C223.82 327.046 223.82 327.018 223.82 326.99C223.577 324.866 223.375 322.832 223.232 320.967C223.137 319.569 223.199 318.164 223.416 316.779C223.992 307.248 224.279 297.198 224.279 297.198C224.583 293.094 224.757 289.247 224.872 285.656C224.202 285.143 222.722 284.35 221.683 283.861C221.675 283.858 212.428 279.659 210.697 279.156Z" fill="#323657"/>
<path d="M209.919 282.18C209.919 282.18 210.196 286.148 206.848 286.241C203.5 286.333 200.838 283.109 200.838 283.109L206.4 284.548L209.783 281.673L209.919 282.18Z" fill="#CAC7D1"/>
<path d="M254.17 308.048C254.17 308.048 256.612 307.366 256.937 305.904C257.213 304.662 258.424 303.213 258.795 302.767C259.292 302.169 260.193 299.781 260.886 300.384C261.58 300.987 259.578 304.385 259.292 305.178C259.005 305.97 262.381 304.578 263.164 304.821C263.947 305.065 265.522 310.91 263.113 311.59C260.704 312.27 257.786 311.362 257.382 311.567C256.814 311.791 256.233 311.98 255.642 312.134L254.17 308.048Z" fill="#EEA886"/>
<path d="M205.396 251.781C205.396 251.781 213.075 253.081 211.777 265.134C210.48 277.187 203.692 276.125 203.239 276.107C202.786 276.089 196.417 276.253 196.072 261.515C196.079 261.515 195.982 250.619 205.396 251.781Z" fill="#EEA987"/>
<path d="M208.762 272.613C208.762 272.613 208.762 277.579 208.964 278.654C209.185 279.811 202.796 283.15 198.672 279.259C198.672 279.259 199.507 273.837 199.248 271.921C198.99 270.005 208.762 272.613 208.762 272.613Z" fill="#EEA987"/>
<path d="M211.806 262.328C211.806 262.328 212.658 261.433 212.957 262.351C213.257 263.269 211.877 267.142 211.701 267.514C211.701 267.514 211.542 267.866 211.342 267.671C211.143 267.476 211.806 262.328 211.806 262.328Z" fill="#EEA987"/>
<path d="M196.169 261.402C196.169 261.402 195.352 260.476 195.017 261.379C194.682 262.282 195.908 266.34 196.061 266.588C196.061 266.588 196.317 267.006 196.535 266.817C196.752 266.627 196.169 261.402 196.169 261.402Z" fill="#EEA987"/>
<path d="M212.425 260.702C212.169 262.351 211.913 263.577 211.913 263.577L210.797 265.042C210.797 265.042 210.861 261.805 210.692 261.297C210.626 261.105 210.551 260.763 210.472 260.394C210.381 259.876 210.264 259.362 210.121 258.855C209.978 258.488 203.538 256.603 197.799 259.25C197.799 259.25 197.848 259.748 197.845 260.302C197.845 260.948 197.774 261.671 197.477 261.782C196.927 261.982 197.157 265.568 197.157 265.568L196.264 264.542C196.264 264.542 196.008 262.669 195.752 260.515C195.752 260.51 195.752 260.504 195.752 260.499C195.695 259.999 195.636 259.473 195.58 258.96C195.452 256.796 195.665 252.863 198.478 250.553C200.377 249.739 203.407 249.047 208.46 250.596C208.46 250.596 209.72 250.958 210.045 251.271C213.183 254.756 212.425 260.702 212.425 260.702Z" fill="#353A3D"/>
<path d="M199.775 274.496C199.775 274.496 201.001 276.202 203.85 276.138C206.699 276.073 207.946 274.599 207.946 274.599C207.946 274.599 206.597 277.42 203.85 277.394C201.104 277.369 199.775 274.496 199.775 274.496Z" fill="#C78D71"/>
<path d="M209.264 282.422L206.397 284.548C206.397 284.548 208.803 279.418 208.854 277.382L209.264 282.422Z" fill="#A09EA6"/>
<path d="M208.854 277.382L210.805 279.2L212.855 285.33L209.264 282.422L208.854 277.382Z" fill="#EAE6F2"/>
<path d="M257.39 313.727C257.39 313.727 240.473 318.19 236.337 317.169C234.425 316.699 231.906 314.055 229.513 310.944C228.725 309.918 227.952 308.846 227.209 307.781C224.274 303.534 221.972 299.461 221.972 299.461C221.972 299.461 213.295 289.27 220.257 284.728C220.257 284.728 223.193 284.43 224.865 285.664C226.401 286.803 230.155 293.977 230.752 295.308C231.348 296.639 237.957 308.987 238.397 309.264C238.838 309.541 244.494 308.53 247.481 308.281C250.5 308.017 253.486 307.465 256.399 306.632L257.39 313.727Z" fill="#323657"/>
<path d="M208.486 279.21C207.94 281.045 207.242 282.831 206.397 284.548C206.397 284.548 203.387 281.906 202.442 280.957C201.498 280.008 208.486 279.21 208.486 279.21Z" fill="#EEA987"/>
<path d="M203.249 281.596L206.397 284.548C206.397 284.548 202.675 284.292 201.979 283.678L203.249 281.596Z" fill="#A09EA6"/>
<path d="M199.074 276.156C199.074 276.156 201.59 280.259 203.249 281.596L200.456 286.246L195.979 278.095L199.074 276.156Z" fill="#EAE6F2"/>
<path d="M185.708 317.712C185.388 322.037 187.213 345.965 185.39 346.301C183.568 346.637 176.869 345.162 176.869 345.162C176.869 345.162 176.03 319.359 176.299 316.653C176.496 314.686 179.626 285.153 181.275 283.968C182.227 283.281 189.296 280.772 192.765 279.403C193.397 279.146 195.406 278.305 195.974 278.089C196.709 278.91 203.118 293.992 203.727 305.734C203.912 309.325 203.075 316.866 202.448 323.037C201.767 329.621 201.017 334.762 200.464 340.268C199.379 351.115 198.618 359.762 198.618 359.762L187.845 354.955C186.099 354.081 183.686 350.495 184.341 348.653C186.831 341.664 189.972 329.719 189.972 323.584C189.972 323.584 188.772 308.563 187.817 305.26C187.814 305.247 186.117 312.216 185.708 317.712Z" fill="#323657"/>
<path d="M212.832 342.267H205.696V347.584H212.832V342.267Z" fill="#3A4066"/>
<path d="M189.696 370.345H166.214L171.725 354.676H195.206L189.696 370.345Z" fill="#EDDAD3"/>
<path d="M189.696 370.345H166.214L171.725 354.676H195.206L189.696 370.345Z" fill="#F2DFD8"/>
<path d="M171.725 386.017H195.206L189.696 370.345H166.214L171.725 386.017Z" fill="#D6C5BE"/>
<path d="M189.696 401.686H166.214L171.725 386.016H195.206L189.696 401.686Z" fill="#F2DFD8"/>
<path d="M171.725 417.355H195.206L189.696 401.686H166.214L171.725 417.355Z" fill="#D6C5BE"/>
<path d="M186.494 357.294H173.102V357.874H186.494V357.294Z" fill="#C9BAB3"/>
<path d="M185.698 359.398H172.306V359.977H185.698V359.398Z" fill="#C9BAB3"/>
<path d="M182.27 361.501H171.435V362.081H182.27V361.501Z" fill="#C9BAB3"/>
<path d="M186.494 388.522H173.102V389.102H186.494V388.522Z" fill="#C9BAB3"/>
<path d="M179.002 390.626H172.306V391.205H179.002V390.626Z" fill="#C9BAB3"/>
<path d="M184.052 346.601C184.052 346.601 184.177 347.001 184.397 347.671C184.779 348.83 186.007 350.154 185.25 351.734C184.492 353.314 178.812 352.321 177.947 351.582C177.082 350.844 177.435 348.425 179.424 345.321C181.413 342.218 184.052 346.601 184.052 346.601Z" fill="#EEA886"/>
<path d="M185.426 351.164C185.369 353.005 185.211 354.842 184.953 356.666C184.587 359.205 183.775 362.309 183.138 362.222C182.168 362.093 183.123 359.626 183.314 357.092C183.494 354.753 183.059 355.184 183.059 355.184C183.059 355.184 183.189 355.068 182.493 357.582C181.745 360.283 180.829 363.153 180.304 363.094C179.654 363.019 179.58 362.955 179.69 361.932C179.498 362.506 179.314 362.537 179.063 362.481C177.77 362.188 178.246 358.046 178.433 356.402C178.282 357.664 178.034 358.574 177.358 357.884C176.59 357.094 177.522 351.269 177.655 349.164C177.806 346.835 185.426 351.164 185.426 351.164Z" fill="#EEA886"/>
<path d="M185.992 329.809L185.882 348.825C185.882 348.825 182.094 348.656 176.875 346.724L176.514 319.908L185.992 329.809Z" fill="#323657"/>
<path d="M155.65 321.073L142.471 350.826L142.117 351.626C141.624 351.678 141.125 351.626 140.653 351.472L140.943 350.815L153.997 321.36L134.979 300.866L132.125 300.245L132.422 298.873L135.706 299.589L155.65 321.073Z" fill="url(#paint11_linear_32_253)"/>
<path d="M135.358 356.569H147.554C147.528 356.318 147.483 356.071 147.418 355.827C147.052 354.376 145.716 351.303 140.971 351.303C136.225 351.303 135.452 354.381 135.355 355.827C135.336 356.074 135.336 356.322 135.358 356.569Z" fill="url(#paint12_linear_32_253)"/>
<path d="M122.936 294.274L123.76 296.613L128.749 310.792C130.904 309.996 132.661 308.382 133.638 306.298C134.615 304.214 134.734 301.829 133.969 299.658C133.205 297.487 131.618 295.705 129.552 294.697C127.486 293.69 125.107 293.538 122.931 294.274H122.936Z" fill="url(#paint13_linear_32_253)"/>
<path d="M142.78 350.821V351.472C142.565 351.545 142.343 351.594 142.117 351.618C141.624 351.671 141.125 351.618 140.653 351.464L140.566 351.434V350.805H140.943H142.478L142.78 350.821Z" fill="#FFA855"/>
<path d="M135.358 356.569H147.554C147.528 356.318 147.483 356.071 147.418 355.827H135.355C135.336 356.074 135.336 356.322 135.358 356.569Z" fill="#FFA555"/>
<path d="M122.936 294.274L123.76 296.613C126.675 298.922 131.183 302.897 133.392 306.953C134.295 305.404 134.701 303.614 134.557 301.826C134.412 300.038 133.723 298.337 132.582 296.954C131.442 295.572 129.905 294.573 128.18 294.094C126.455 293.614 124.624 293.677 122.936 294.274Z" fill="#FFA855"/>
<path d="M81.7848 319.375C81.7848 319.375 83.9093 316.681 84.2446 316.279C84.5799 315.876 85.9007 315.509 87.4441 315.209C88.9876 314.909 91.1607 315.284 91.3347 315.499C91.4933 315.633 91.6212 315.8 91.7096 315.988C91.7979 316.176 91.8447 316.381 91.8466 316.589C91.8739 317.085 91.7863 317.581 91.5907 318.038C91.7275 318.298 91.8018 318.586 91.8076 318.879C91.8134 319.173 91.7505 319.464 91.624 319.729C91.742 320.005 91.7833 320.308 91.7437 320.606C91.704 320.904 91.5848 321.186 91.3987 321.421C91.3987 321.421 91.7878 322.25 91.2733 322.832C91.2733 322.832 89.95 323.214 89.4816 323.509C89.0132 323.804 86.2334 324.394 83.4946 324.507C83.5177 324.507 80.9401 323.65 81.7848 319.375Z" fill="#EEA886"/>
<path d="M20.4744 402.471L8.36738 453.056H5.70026L15.9669 402.36L20.4744 402.471Z" fill="#858585"/>
<path d="M33.682 402.471L21.575 453.056H18.9079L29.1745 402.36L33.682 402.471Z" fill="#858585"/>
<path d="M55.0445 402.471L67.1515 453.056H69.8186L59.552 402.36L55.0445 402.471Z" fill="#858585"/>
<path d="M66.5039 402.963H14.3338C14.3338 402.963 10.6992 402.878 8.26756 392.093C5.52877 379.958 0 339.427 0 339.427C0 339.427 1.46666 335.657 24.4008 336.139L65.4698 389.533C65.4698 389.533 66.8699 397.951 66.5039 402.963Z" fill="#E2D2CA"/>
<path d="M68.1088 352.383C68.1088 352.383 70.7682 351.223 72.7596 351.69C74.751 352.157 79.4146 353.904 81.7183 354.193C84.0219 354.483 86.2206 355.827 86.1797 356.594C86.1387 357.361 68.3724 357.99 68.288 356.24C68.2035 354.491 68.1088 352.383 68.1088 352.383Z" fill="#EEA886"/>
<path d="M81.7848 319.375C81.7848 319.375 78.314 321.66 78.2398 322.36C78.1118 323.519 78.8285 327.123 78.9155 327.072C79.0025 327.021 84.1473 324.463 84.1473 324.463L81.7848 319.375Z" fill="#EEA886"/>
<path d="M81.7132 444.443C81.7132 444.443 86.1822 447.108 88.2069 448.098C90.2316 449.088 98.1075 449.38 98.8831 450.135C99.6586 450.889 99.3668 453.236 98.0614 453.469C96.756 453.702 87.1805 454.549 83.9835 453.792C80.7866 453.035 74.815 454.279 73.4891 453.825C72.1632 453.371 73.0386 446.228 73.5531 444.625C74.0676 443.022 81.7132 444.443 81.7132 444.443Z" fill="#292C47"/>
<path d="M81.6517 441.424L81.7208 444.448C81.7208 444.448 75.7313 445.554 73.571 444.635L73.722 441.316L81.6517 441.424Z" fill="#1C1E30"/>
<path d="M92.1794 444.443C92.1794 444.443 96.6485 447.108 98.6732 448.098C100.698 449.088 108.574 449.38 109.349 450.135C110.125 450.889 109.836 453.236 108.53 453.469C107.225 453.702 97.6493 454.549 94.4524 453.792C91.2554 453.035 85.2838 454.279 83.9579 453.825C82.6321 453.371 83.5074 446.228 84.0219 444.625C84.5364 443.022 92.1794 444.443 92.1794 444.443Z" fill="#323657"/>
<path d="M92.1103 441.424L92.1794 444.448C92.1794 444.448 86.1925 445.554 84.0296 444.635L84.1806 441.316L92.1103 441.424Z" fill="#1C1E30"/>
<path d="M56.9361 371.032L50.1352 369.842L54.6683 358.403L56.9361 371.032Z" fill="#24263D"/>
<path d="M36.559 373.379C36.559 373.379 70.7375 380.648 76.0692 382.921C81.4009 385.193 84.603 386.127 85.0023 387.263C85.4016 388.399 93.7382 442.706 93.7382 442.706H82.4043C82.4043 442.706 73.6043 401.686 72.5369 399.146C71.4696 396.607 29.2001 396.474 26.1337 393.401C23.0672 390.328 20.4001 381.91 23.7353 374.361C27.0705 366.813 36.559 373.379 36.559 373.379Z" fill="#282B45"/>
<path d="M53.8697 369.56C53.8697 369.56 93.0625 380.607 96.2697 385.66C99.5383 390.803 83.2029 442.714 83.2029 442.714H72.002C72.002 442.714 82.8036 394.078 81.4725 391.929C80.1416 389.779 21.0656 391.862 32.072 374.359C43.0783 356.856 53.8697 369.56 53.8697 369.56Z" fill="#282B45"/>
<path d="M49.7948 314.973C51.2691 314.204 56.1938 315.889 57.6425 318.156C61.0187 323.427 67.4023 329.939 67.4023 329.939L81.6364 317.948L84.4878 325.097L67.5943 339.366C66.8995 339.953 66.0118 340.26 65.1035 340.228C64.1953 340.195 63.3315 339.826 62.6799 339.191C58.2415 334.874 49.1139 325.795 48.4023 323.525C47.4681 320.521 46.9766 316.445 49.7948 314.973Z" fill="#323657"/>
<path d="M44.9775 284.45C44.9775 284.45 51.7784 285.587 51.845 297.144C51.9115 308.702 47.5372 309.792 40.9103 308.102C36.9224 307.076 33.1777 301.433 34.6444 291.466C36.111 281.498 44.9775 284.45 44.9775 284.45Z" fill="#EEA987"/>
<path d="M45.8683 312.036C45.8683 312.036 55.2416 315.448 56.6417 317.587C58.0418 319.726 57.1357 338.96 56.3346 345.842C55.5334 352.724 53.3347 367.554 53.8697 369.56L32.0669 374.369C32.0669 374.369 25.0689 348.848 24.8667 344.772C24.6644 340.697 19.535 321.724 21.9999 320.188C24.4648 318.651 35.2024 312.639 35.2024 312.639L45.8683 312.036Z" fill="#EDDAD3"/>
<path d="M32.0669 374.369L30.9995 370.427L53.9183 365.956L53.8697 369.56L32.0669 374.369Z" fill="#1F2136"/>
<path d="M43.4674 367.788L48.9014 366.651V370.963L43.4674 372.23V367.788Z" fill="#4F558A"/>
<path d="M41.0332 356.571C40.9743 357.7 40.9001 358.841 40.8412 359.998L40.8258 360.013C40.058 372.692 38.8985 385.955 38.8985 385.955C37.3064 387.289 17.1136 382.59 17.1136 382.59C17.1136 382.59 19.599 379.207 21.9948 369.837C24.3906 360.467 22.5067 351.49 20.0213 336.265C17.5359 321.039 19.599 321.132 19.599 321.132L35.2126 312.639C36.2365 316.535 40.3702 330.663 41.3557 338.758C41.6884 341.713 41.4658 348.784 41.0332 356.571Z" fill="#323657"/>
<path d="M46.0193 312.065C46.0193 312.065 50.5626 323.825 52.49 335.821C54.4558 348.05 54.3611 370.191 56.4907 370.737C58.6203 371.284 57.965 370.914 57.965 370.914C57.965 370.914 57.5657 357.538 57.3712 353.101C56.9361 343.203 58.779 320.89 57.9266 318.636C57.0743 316.381 50.9543 312.957 46.0193 312.065Z" fill="#323657"/>
<path d="M45.6482 310.218C45.6238 310.831 45.6982 311.444 45.8683 312.034C45.8683 312.034 44.6704 316.72 35.2024 312.634C35.2024 312.634 37.0735 305.652 35.2024 299.794L45.8683 306.427C45.8683 306.427 45.7378 307.481 45.6789 308.71C45.6482 309.207 45.6354 309.736 45.6482 310.218Z" fill="#EEA987"/>
<path d="M35.5786 310.777C35.5786 310.777 39.3003 312.572 43.0553 312.929L41.2252 316.83L35.1921 312.639L35.5786 310.777Z" fill="#D6C5BF"/>
<path d="M43.0655 312.921C43.0655 312.921 45.684 312.052 45.6635 310.769L46.0193 312.052L44.952 316.156L43.0655 312.921Z" fill="#D6C5BF"/>
<path d="M51.031 291.132C51.031 291.132 52.9328 287.028 51.543 284.04C50.1531 281.052 46.5645 282.286 44.9212 282.642C43.278 282.999 40.1655 279.346 34.6546 283.799C29.1438 288.252 30.7871 292.93 33.2315 298.499C35.6759 304.067 35.9728 304.493 35.9728 304.493C35.9728 304.493 35.9907 298.85 36.6562 297.839C37.4369 296.662 40.2986 296.044 40.2986 296.044C40.2986 296.044 38.1203 293.058 40.2551 291.94C42.3898 290.822 46.8179 292.897 51.031 291.132Z" fill="#16202E"/>
<path d="M37.5112 294.89C37.2219 294.038 35.786 293.069 35.0667 294.667C34.3475 296.264 36.2211 299.076 37.245 299.076C38.2688 299.076 38.1767 296.849 37.5112 294.89Z" fill="#EEA987"/>
<path d="M43.0655 312.921L44.4324 315.278C44.4324 315.278 43.8001 316.007 41.7678 315.689L43.0655 312.921Z" fill="#007FE6"/>
<path d="M44.1406 315.486C44.1406 315.486 49.7359 331.986 49.7717 343.7C49.8075 355.414 48.8938 362.409 48.8938 362.409L47.6626 364.717L45.8709 362.611C45.8709 362.611 47.1507 328.598 42.1645 315.745C42.162 315.743 43.9332 314.901 44.1406 315.486Z" fill="#007FE6"/>
<path d="M21.3318 320.188C25.4272 318.515 29.6685 324.197 31.9338 329.875C34.199 335.554 38.535 345.886 38.535 345.886L68.8101 350.803L69.2376 356.569H33.9149C33.9149 356.569 20.4539 332.415 19.5222 329.406C18.5905 326.397 18.3908 321.386 21.3318 320.188Z" fill="#323657"/>
<path d="M158.333 356.569H58.5077V360.013H158.333V356.569Z" fill="#E2D2CA"/>
<path d="M119.406 296.262H117.003V349.661H119.406V296.262Z" fill="#6E6760"/>
<path d="M122.897 356.569H140.886V355.476H122.897C121.961 355.476 121.285 355.253 120.891 354.812C120.602 354.461 120.459 354.013 120.491 353.56V353.524V330.201H119.406V353.468C119.35 354.212 119.587 354.948 120.066 355.52C120.673 356.217 121.625 356.569 122.897 356.569Z" fill="#918880"/>
<path d="M117.371 356.571H97.1246V356.415C97.1246 355.949 97.3093 355.502 97.6381 355.172C97.967 354.843 98.4129 354.658 98.8779 354.658H117.371V356.571Z" fill="#6E6760"/>
<path d="M147.953 453.633H150.789V360.016H147.953V453.633Z" fill="#706865"/>
<path d="M66.0509 453.633H68.8869L68.8869 360.016H66.0509L66.0509 453.633Z" fill="#706865"/>
<path d="M41.0332 356.571C40.9743 357.7 40.9001 358.841 40.8412 359.998L40.8259 360.013C40.8259 360.013 36.8917 360.526 33.5949 359.033C30.2982 357.541 27.9843 346.104 27.823 345.503C28.1609 346.163 33.4542 356.571 34.7493 356.571H41.0332Z" fill="#1F2136"/>
<path d="M45.6789 308.71C45.6482 309.207 45.6354 309.736 45.6482 310.218C38.1255 310.336 38.0077 306.032 38.0077 306.032C39.1775 309.151 45.6789 308.71 45.6789 308.71Z" fill="#A77860"/>
<path d="M94.4706 310.697L86.2444 318.655L86.9164 319.352L95.1426 311.395L94.4706 310.697Z" fill="#EB4747"/>
<path d="M94.4575 310.721L96.0035 309.897L95.1306 311.418L94.4575 310.721Z" fill="#EEA886"/>
<path d="M90.9277 315.558C90.9277 315.558 87.0269 316.399 87.0448 317.097C87.0627 317.795 87.4569 318.031 87.4569 318.031L85.9595 319.175C85.9595 319.175 85.3299 320.531 86.8221 320.824C86.8221 320.824 86.1208 322.027 87.59 322.119C87.59 322.119 87.439 323.127 88.1019 323.304C88.7649 323.481 91.2682 322.824 91.2682 322.824C91.2682 322.824 91.8646 322.429 91.5088 321.416C91.6936 321.181 91.8111 320.899 91.8485 320.602C91.8859 320.305 91.8419 320.003 91.7212 319.729C91.8556 319.464 91.9234 319.17 91.9184 318.873C91.9135 318.577 91.8362 318.285 91.6931 318.025C91.6931 318.025 92.461 316.358 91.3168 315.491C91.186 315.506 91.0561 315.529 90.9277 315.558Z" fill="#D69779"/>
<path d="M84.3649 316.238C84.3649 316.238 86.9245 317.061 88.125 318.2C88.3963 318.456 88.6113 318.762 88.4859 319.146C88.3605 319.531 87.7026 319.844 86.5713 319.552C85.4399 319.259 83.8351 319.459 83.8351 319.459C83.8351 319.459 82.7677 318.777 84.3649 316.238Z" fill="#EEA886"/>
<path d="M87.6515 403.463C87.6515 403.463 85.2582 388.479 85.1302 387.873C85.0023 387.268 82.5706 385.08 70.9116 381.256C70.9116 381.256 83.8658 383.78 87.2624 385.996C89.8783 387.702 87.6515 403.463 87.6515 403.463Z" fill="#12131F"/>
<path d="M136.427 356.569C137.707 356.035 139.773 349.985 140.779 346.85C141.129 345.737 141.35 344.993 141.35 344.993H129.652C130.676 352.229 133.118 356.569 133.118 356.569H136.427Z" fill="#9E633A"/>
<path d="M137.359 341.392C137.359 340.971 139.238 339.207 140.175 338.058C141.112 336.908 139.814 334.723 139.814 334.723C135.626 336.457 136.348 341.392 136.348 341.392C136.348 341.392 137.359 341.81 137.359 341.392Z" fill="#97A43C"/>
<path d="M134.976 341.577H135.488C135.488 341.577 135.849 333.056 132.744 331.897C129.639 330.737 129.639 328.424 129.639 328.424C129.639 328.424 128.7 331.607 130.218 333.271C131.736 334.936 133.466 336.89 133.177 338.481C132.888 340.071 134.976 341.577 134.976 341.577Z" fill="#97A43C"/>
<path d="M140.761 346.85C141.112 345.737 141.332 344.993 141.332 344.993H129.634C130.658 352.229 133.1 356.569 133.1 356.569H133.868C133.722 349.795 138.173 347.571 140.761 346.85Z" fill="#82522F"/>
<path d="M141.329 341.389H129.545L128.874 344.993H141.808L141.329 341.389Z" fill="#C67B47"/>
<defs>
<linearGradient id="paint0_linear_32_253" x1="174.824" y1="304.385" x2="577.731" y2="304.385" gradientUnits="userSpaceOnUse">
<stop stop-color="#FFC05C"/>
<stop offset="1" stop-color="#FF3857"/>
</linearGradient>
<linearGradient id="paint1_linear_32_253" x1="174.824" y1="293.461" x2="577.943" y2="293.461" gradientUnits="userSpaceOnUse">
<stop stop-color="#40D5E6"/>
<stop offset="1" stop-color="#5577FF"/>
</linearGradient>
<linearGradient id="paint2_linear_32_253" x1="370.266" y1="165.463" x2="513.963" y2="165.463" gradientUnits="userSpaceOnUse">
<stop stop-color="#8FD6FF"/>
<stop offset="1" stop-color="#BFEBFE"/>
</linearGradient>
<linearGradient id="paint3_linear_32_253" x1="206224" y1="34698" x2="286373" y2="34698" gradientUnits="userSpaceOnUse">
<stop stop-color="#8FD6FF"/>
<stop offset="1" stop-color="#BFEBFE"/>
</linearGradient>
<linearGradient id="paint4_linear_32_253" x1="394.506" y1="101.394" x2="313.217" y2="332.515" gradientUnits="userSpaceOnUse">
<stop stop-color="#C6CBCF"/>
<stop offset="1" stop-color="#F8F1FE"/>
</linearGradient>
<linearGradient id="paint5_linear_32_253" x1="128.815" y1="218.26" x2="128.815" y2="354.804" gradientUnits="userSpaceOnUse">
<stop stop-color="#626E7A"/>
<stop offset="1" stop-color="#F5F5F5"/>
</linearGradient>
<linearGradient id="paint6_linear_32_253" x1="128.411" y1="267.773" x2="128.411" y2="560.103" gradientUnits="userSpaceOnUse">
<stop stop-color="#44607D"/>
<stop offset="1" stop-color="#F5F5F5"/>
</linearGradient>
<linearGradient id="paint7_linear_32_253" x1="160.234" y1="243.25" x2="164.972" y2="243.25" gradientUnits="userSpaceOnUse">
<stop stop-color="#D5E4FF"/>
<stop offset="1" stop-color="#EDFFFE"/>
</linearGradient>
<linearGradient id="paint8_linear_32_253" x1="3288.48" y1="31467.2" x2="3376.18" y2="31467.2" gradientUnits="userSpaceOnUse">
<stop stop-color="#D5E4FF"/>
<stop offset="1" stop-color="#EDFFFE"/>
</linearGradient>
<linearGradient id="paint9_linear_32_253" x1="3458.82" y1="28244.3" x2="3546.51" y2="28244.3" gradientUnits="userSpaceOnUse">
<stop stop-color="#D5E4FF"/>
<stop offset="1" stop-color="#EDFFFE"/>
</linearGradient>
<linearGradient id="paint10_linear_32_253" x1="3633.82" y1="20556.9" x2="3721.52" y2="20556.9" gradientUnits="userSpaceOnUse">
<stop stop-color="#D5E4FF"/>
<stop offset="1" stop-color="#EDFFFE"/>
</linearGradient>
<linearGradient id="paint11_linear_32_253" x1="143.886" y1="342.841" x2="143.886" y2="319.841" gradientUnits="userSpaceOnUse">
<stop stop-color="#FF9F55"/>
<stop offset="1" stop-color="#FFD255"/>
</linearGradient>
<linearGradient id="paint12_linear_32_253" x1="108872" y1="7617.64" x2="108289" y2="7617.64" gradientUnits="userSpaceOnUse">
<stop stop-color="#FF9F55"/>
<stop offset="1" stop-color="#FFD255"/>
</linearGradient>
<linearGradient id="paint13_linear_32_253" x1="102146" y1="20303.1" x2="101620" y2="20303.1" gradientUnits="userSpaceOnUse">
<stop stop-color="#FF9F55"/>
<stop offset="1" stop-color="#FFD255"/>
</linearGradient>
</defs>
</svg>
