<svg width="23" height="23" viewBox="0 0 23 23" fill="none" xmlns="http://www.w3.org/2000/svg">
<g clip-path="url(#clip0_97_184)">
<path d="M11.6177 -8.38797e-05C5.16477 -0.0333022 -0.0145666 5.1017 3.078e-05 11.5036C0.0155405 18.0855 5.41384 23.0784 11.4772 22.999C17.7869 23.0848 22.9024 17.8778 22.9982 11.6928C23.0967 5.35637 18.0013 0.0331345 11.6177 -8.38797e-05ZM11.355 21.4996C5.9804 21.4534 1.53458 16.9653 1.53367 11.4953C1.51268 6.15823 5.81435 1.50028 11.5146 1.51873C17.1711 1.53626 21.4792 6.04012 21.481 11.5174C21.4819 17.207 16.7998 21.554 11.355 21.4996Z" fill="#0DE3FF"/>
<path d="M9.21458 4.40869C9.24195 4.66613 9.27936 4.88021 9.28483 5.0952C9.31129 6.13605 9.33318 7.17781 9.34322 8.21865C9.34269 8.28007 9.32988 8.34075 9.30558 8.39704C9.28128 8.45333 9.24598 8.50407 9.20181 8.54622C8.62977 8.97252 8.40625 9.62674 8.73195 10.2727C9.47642 11.749 10.2464 13.2103 11.042 14.6566C11.4653 15.4243 11.8412 15.523 12.6842 15.272C12.7717 15.2604 12.8605 15.2657 12.946 15.2877C12.9707 15.2877 12.9917 15.3191 13.0135 15.3375L15.9577 17.6859C15.8426 17.7639 15.7235 17.8356 15.6009 17.9009C14.8711 18.2367 14.1485 18.5948 13.3137 18.5929C12.4926 18.5929 11.8129 18.2358 11.1715 17.7782C9.88423 16.8619 8.98741 15.5885 8.08876 14.3133C7.22934 13.0934 6.81149 11.7084 6.58614 10.2607C6.43419 9.29103 6.34035 8.31299 6.30514 7.33191C6.2577 5.92659 7.04048 4.9328 8.38709 4.58032C8.64984 4.51019 8.91625 4.46959 9.21458 4.40869Z" fill="#0DE3FF"/>
<path d="M16.4221 17.3824L13.238 14.82C13.5318 14.6696 13.7699 14.5118 14.0309 14.4315C14.1558 14.3937 14.3538 14.4648 14.4706 14.5524C15.1549 15.0642 15.83 15.589 16.496 16.1266C16.6666 16.2641 16.7587 16.4533 16.6392 16.7024C16.5434 16.9026 16.5024 17.1287 16.4221 17.3824Z" fill="#0DE3FF"/>
<path d="M9.85324 8.32114C9.83043 8.12921 9.79029 7.93451 9.78481 7.73797C9.76018 6.71558 9.74832 5.6932 9.72186 4.67081C9.71548 4.4309 9.77934 4.36723 10.0147 4.4512C10.5813 4.65143 10.7446 4.86735 10.7501 5.45698C10.7501 6.15825 10.7583 6.85953 10.7583 7.56173C10.7601 7.98895 10.3012 8.37835 9.85324 8.32114Z" fill="#0DE3FF"/>
</g>
<defs>
<clipPath id="clip0_97_184">
<rect width="23" height="23" fill="white"/>
</clipPath>
</defs>
</svg>
