<svg width="65" height="65" viewBox="0 0 65 65" fill="none" xmlns="http://www.w3.org/2000/svg">
<path d="M22.3438 52.8125V60.9375V52.8125ZM10.1562 4.0625H34.5312C35.6087 4.0625 36.642 4.49051 37.4039 5.25238C38.1657 6.01425 38.5938 7.04756 38.5938 8.125V60.4297C38.5938 60.5644 38.5402 60.6935 38.445 60.7888C38.3498 60.884 38.2206 60.9375 38.0859 60.9375H6.09375V8.125C6.09375 7.04756 6.52176 6.01425 7.28363 5.25238C8.0455 4.49051 9.07881 4.0625 10.1562 4.0625V4.0625ZM40.625 24.375H54.8438C55.9212 24.375 56.9545 24.803 57.7164 25.5649C58.4782 26.3267 58.9062 27.3601 58.9062 28.4375V60.9375H38.5938V26.4062C38.5938 25.8675 38.8078 25.3509 39.1887 24.9699C39.5696 24.589 40.0863 24.375 40.625 24.375Z" stroke="url(#paint0_linear_42_185)" stroke-width="4" stroke-linecap="round" stroke-linejoin="round"/>
<path d="M12.4516 54.8272C12.0309 54.8823 11.6035 54.8042 11.2295 54.6039C10.8555 54.4037 10.5535 54.0914 10.366 53.7108C10.1785 53.3302 10.1149 52.9004 10.1841 52.4818C10.2533 52.0632 10.4519 51.6768 10.7519 51.3768C11.0519 51.0768 11.4383 50.8783 11.8569 50.8091C12.2755 50.7399 12.7052 50.8035 13.0858 50.991C13.4664 51.1785 13.7787 51.4804 13.979 51.8545C14.1792 52.2285 14.2573 52.6559 14.2023 53.0766C14.1442 53.5205 13.9411 53.9328 13.6245 54.2495C13.3079 54.5661 12.8955 54.7692 12.4516 54.8272ZM12.4516 44.671C12.0309 44.726 11.6035 44.6479 11.2295 44.4477C10.8555 44.2474 10.5535 43.9351 10.366 43.5545C10.1785 43.1739 10.1149 42.7442 10.1841 42.3256C10.2533 41.907 10.4519 41.5206 10.7519 41.2206C11.0519 40.9206 11.4383 40.722 11.8569 40.6528C12.2755 40.5836 12.7052 40.6473 13.0858 40.8347C13.4664 41.0222 13.7787 41.3242 13.979 41.6982C14.1792 42.0723 14.2573 42.4996 14.2023 42.9203C14.1442 43.3643 13.9411 43.7766 13.6245 44.0932C13.3079 44.4098 12.8955 44.6129 12.4516 44.671ZM12.4516 34.5147C12.0309 34.5698 11.6035 34.4917 11.2295 34.2914C10.8555 34.0912 10.5535 33.7789 10.366 33.3983C10.1785 33.0177 10.1149 32.5879 10.1841 32.1693C10.2533 31.7507 10.4519 31.3643 10.7519 31.0643C11.0519 30.7643 11.4383 30.5658 11.8569 30.4966C12.2755 30.4274 12.7052 30.491 13.0858 30.6785C13.4664 30.866 13.7787 31.1679 13.979 31.542C14.1792 31.916 14.2573 32.3434 14.2023 32.7641C14.1442 33.208 13.9411 33.6204 13.6245 33.937C13.3079 34.2536 12.8955 34.4567 12.4516 34.5147ZM12.4516 24.3585C12.0309 24.4135 11.6035 24.3354 11.2295 24.1352C10.8555 23.9349 10.5535 23.6226 10.366 23.242C10.1785 22.8614 10.1149 22.4317 10.1841 22.0131C10.2533 21.5945 10.4519 21.2081 10.7519 20.9081C11.0519 20.6081 11.4383 20.4095 11.8569 20.3403C12.2755 20.2711 12.7052 20.3348 13.0858 20.5222C13.4664 20.7097 13.7787 21.0117 13.979 21.3857C14.1792 21.7598 14.2573 22.1871 14.2023 22.6078C14.1442 23.0518 13.9411 23.4641 13.6245 23.7807C13.3079 24.0973 12.8955 24.3004 12.4516 24.3585ZM12.4516 14.2022C12.0309 14.2573 11.6035 14.1792 11.2295 13.9789C10.8555 13.7787 10.5535 13.4664 10.366 13.0858C10.1785 12.7052 10.1149 12.2754 10.1841 11.8568C10.2533 11.4383 10.4519 11.0518 10.7519 10.7518C11.0519 10.4518 11.4383 10.2533 11.8569 10.1841C12.2755 10.1149 12.7052 10.1785 13.0858 10.366C13.4664 10.5535 13.7787 10.8554 13.979 11.2295C14.1792 11.6035 14.2573 12.0309 14.2023 12.4516C14.1442 12.8955 13.9411 13.3079 13.6245 13.6245C13.3079 13.9411 12.8955 14.1442 12.4516 14.2022ZM22.6078 44.671C22.1872 44.726 21.7598 44.6479 21.3858 44.4477C21.0117 44.2474 20.7098 43.9351 20.5223 43.5545C20.3348 43.1739 20.2712 42.7442 20.3404 42.3256C20.4096 41.907 20.6081 41.5206 20.9081 41.2206C21.2081 40.9206 21.5945 40.722 22.0131 40.6528C22.4317 40.5836 22.8614 40.6473 23.242 40.8347C23.6226 41.0222 23.935 41.3242 24.1352 41.6982C24.3355 42.0723 24.4135 42.4996 24.3585 42.9203C24.3005 43.3643 24.0973 43.7766 23.7807 44.0932C23.4641 44.4098 23.0518 44.6129 22.6078 44.671ZM22.6078 34.5147C22.1872 34.5698 21.7598 34.4917 21.3858 34.2914C21.0117 34.0912 20.7098 33.7789 20.5223 33.3983C20.3348 33.0177 20.2712 32.5879 20.3404 32.1693C20.4096 31.7507 20.6081 31.3643 20.9081 31.0643C21.2081 30.7643 21.5945 30.5658 22.0131 30.4966C22.4317 30.4274 22.8614 30.491 23.242 30.6785C23.6226 30.866 23.935 31.1679 24.1352 31.542C24.3355 31.916 24.4135 32.3434 24.3585 32.7641C24.3005 33.208 24.0973 33.6204 23.7807 33.937C23.4641 34.2536 23.0518 34.4567 22.6078 34.5147ZM22.6078 24.3585C22.1872 24.4135 21.7598 24.3354 21.3858 24.1352C21.0117 23.9349 20.7098 23.6226 20.5223 23.242C20.3348 22.8614 20.2712 22.4317 20.3404 22.0131C20.4096 21.5945 20.6081 21.2081 20.9081 20.9081C21.2081 20.6081 21.5945 20.4095 22.0131 20.3403C22.4317 20.2711 22.8614 20.3348 23.242 20.5222C23.6226 20.7097 23.935 21.0117 24.1352 21.3857C24.3355 21.7598 24.4135 22.1871 24.3585 22.6078C24.3005 23.0518 24.0973 23.4641 23.7807 23.7807C23.4641 24.0973 23.0518 24.3004 22.6078 24.3585ZM22.6078 14.2022C22.1872 14.2573 21.7598 14.1792 21.3858 13.9789C21.0117 13.7787 20.7098 13.4664 20.5223 13.0858C20.3348 12.7052 20.2712 12.2754 20.3404 11.8568C20.4096 11.4383 20.6081 11.0518 20.9081 10.7518C21.2081 10.4518 21.5945 10.2533 22.0131 10.1841C22.4317 10.1149 22.8614 10.1785 23.242 10.366C23.6226 10.5535 23.935 10.8554 24.1352 11.2295C24.3355 11.6035 24.4135 12.0309 24.3585 12.4516C24.3005 12.8955 24.0973 13.3079 23.7807 13.6245C23.4641 13.9411 23.0518 14.1442 22.6078 14.2022ZM32.7641 54.8272C32.3434 54.8823 31.916 54.8042 31.542 54.6039C31.168 54.4037 30.866 54.0914 30.6785 53.7108C30.491 53.3302 30.4274 52.9004 30.4966 52.4818C30.5658 52.0632 30.7644 51.6768 31.0644 51.3768C31.3644 51.0768 31.7508 50.8783 32.1694 50.8091C32.5879 50.7399 33.0177 50.8035 33.3983 50.991C33.7789 51.1785 34.0912 51.4804 34.2915 51.8545C34.4917 52.2285 34.5698 52.6559 34.5148 53.0766C34.4567 53.5205 34.2536 53.9328 33.937 54.2495C33.6204 54.5661 33.208 54.7692 32.7641 54.8272ZM32.7641 44.671C32.3434 44.726 31.916 44.6479 31.542 44.4477C31.168 44.2474 30.866 43.9351 30.6785 43.5545C30.491 43.1739 30.4274 42.7442 30.4966 42.3256C30.5658 41.907 30.7644 41.5206 31.0644 41.2206C31.3644 40.9206 31.7508 40.722 32.1694 40.6528C32.5879 40.5836 33.0177 40.6473 33.3983 40.8347C33.7789 41.0222 34.0912 41.3242 34.2915 41.6982C34.4917 42.0723 34.5698 42.4996 34.5148 42.9203C34.4567 43.3643 34.2536 43.7766 33.937 44.0932C33.6204 44.4098 33.208 44.6129 32.7641 44.671ZM32.7641 34.5147C32.3434 34.5698 31.916 34.4917 31.542 34.2914C31.168 34.0912 30.866 33.7789 30.6785 33.3983C30.491 33.0177 30.4274 32.5879 30.4966 32.1693C30.5658 31.7507 30.7644 31.3643 31.0644 31.0643C31.3644 30.7643 31.7508 30.5658 32.1694 30.4966C32.5879 30.4274 33.0177 30.491 33.3983 30.6785C33.7789 30.866 34.0912 31.1679 34.2915 31.542C34.4917 31.916 34.5698 32.3434 34.5148 32.7641C34.4567 33.208 34.2536 33.6204 33.937 33.937C33.6204 34.2536 33.208 34.4567 32.7641 34.5147Z" fill="url(#paint1_linear_42_185)"/>
<path d="M33.939 23.7817C34.7297 22.9909 34.7265 21.7056 33.9318 20.9109C33.1371 20.1161 31.8517 20.1129 31.061 20.9037C30.2702 21.6945 30.2734 22.9798 31.0682 23.7745C31.8629 24.5693 33.1482 24.5725 33.939 23.7817Z" fill="url(#paint2_linear_42_185)"/>
<path d="M32.7641 14.2022C32.3434 14.2573 31.916 14.1792 31.542 13.9789C31.168 13.7787 30.866 13.4664 30.6785 13.0858C30.491 12.7052 30.4274 12.2754 30.4966 11.8568C30.5658 11.4383 30.7644 11.0518 31.0644 10.7518C31.3644 10.4518 31.7508 10.2533 32.1694 10.1841C32.588 10.1149 33.0177 10.1785 33.3983 10.366C33.7789 10.5535 34.0912 10.8554 34.2915 11.2295C34.4917 11.6035 34.5698 12.0309 34.5148 12.4516C34.4567 12.8955 34.2536 13.3079 33.937 13.6245C33.6204 13.9411 33.208 14.1442 32.7641 14.2022ZM50.7813 50.7812C50.3795 50.7812 49.9868 50.9004 49.6528 51.1236C49.3187 51.3468 49.0584 51.664 48.9046 52.0352C48.7509 52.4063 48.7107 52.8147 48.7891 53.2088C48.8674 53.6028 49.0609 53.9647 49.345 54.2488C49.629 54.5329 49.991 54.7263 50.385 54.8047C50.779 54.8831 51.1874 54.8429 51.5586 54.6891C51.9298 54.5354 52.247 54.275 52.4702 53.941C52.6934 53.607 52.8125 53.2142 52.8125 52.8125C52.8125 52.2738 52.5985 51.7571 52.2176 51.3762C51.8367 50.9952 51.32 50.7812 50.7813 50.7812ZM50.7813 40.625C50.3795 40.625 49.9868 40.7441 49.6528 40.9673C49.3187 41.1905 49.0584 41.5078 48.9046 41.8789C48.7509 42.2501 48.7107 42.6585 48.7891 43.0525C48.8674 43.4465 49.0609 43.8085 49.345 44.0926C49.629 44.3766 49.991 44.5701 50.385 44.6485C50.779 44.7268 51.1874 44.6866 51.5586 44.5329C51.9298 44.3791 52.247 44.1188 52.4702 43.7847C52.6934 43.4507 52.8125 43.058 52.8125 42.6562C52.8125 42.1175 52.5985 41.6009 52.2176 41.2199C51.8367 40.839 51.32 40.625 50.7813 40.625ZM50.7813 30.4687C50.3795 30.4687 49.9868 30.5879 49.6528 30.8111C49.3187 31.0343 49.0584 31.3515 48.9046 31.7227C48.7509 32.0938 48.7107 32.5023 48.7891 32.8963C48.8674 33.2903 49.0609 33.6522 49.345 33.9363C49.629 34.2204 49.991 34.4138 50.385 34.4922C50.779 34.5706 51.1874 34.5304 51.5586 34.3766C51.9298 34.2229 52.247 33.9625 52.4702 33.6285C52.6934 33.2945 52.8125 32.9017 52.8125 32.5C52.8125 31.9613 52.5985 31.4446 52.2176 31.0637C51.8367 30.6828 51.32 30.4687 50.7813 30.4687ZM42.6563 50.7812C42.2545 50.7812 41.8618 50.9004 41.5278 51.1236C41.1937 51.3468 40.9334 51.664 40.7796 52.0352C40.6259 52.4063 40.5857 52.8147 40.6641 53.2088C40.7424 53.6028 40.9359 53.9647 41.22 54.2488C41.504 54.5329 41.866 54.7263 42.26 54.8047C42.654 54.8831 43.0624 54.8429 43.4336 54.6891C43.8048 54.5354 44.122 54.275 44.3452 53.941C44.5684 53.607 44.6875 53.2142 44.6875 52.8125C44.6875 52.2738 44.4735 51.7571 44.0926 51.3762C43.7117 50.9952 43.195 50.7812 42.6563 50.7812ZM42.6563 40.625C42.2545 40.625 41.8618 40.7441 41.5278 40.9673C41.1937 41.1905 40.9334 41.5078 40.7796 41.8789C40.6259 42.2501 40.5857 42.6585 40.6641 43.0525C40.7424 43.4465 40.9359 43.8085 41.22 44.0926C41.504 44.3766 41.866 44.5701 42.26 44.6485C42.654 44.7268 43.0624 44.6866 43.4336 44.5329C43.8048 44.3791 44.122 44.1188 44.3452 43.7847C44.5684 43.4507 44.6875 43.058 44.6875 42.6562C44.6875 42.1175 44.4735 41.6009 44.0926 41.2199C43.7117 40.839 43.195 40.625 42.6563 40.625ZM42.6563 30.4687C42.2545 30.4687 41.8618 30.5879 41.5278 30.8111C41.1937 31.0343 40.9334 31.3515 40.7796 31.7227C40.6259 32.0938 40.5857 32.5023 40.6641 32.8963C40.7424 33.2903 40.9359 33.6522 41.22 33.9363C41.504 34.2204 41.866 34.4138 42.26 34.4922C42.654 34.5706 43.0624 34.5304 43.4336 34.3766C43.8048 34.2229 44.122 33.9625 44.3452 33.6285C44.5684 33.2945 44.6875 32.9017 44.6875 32.5C44.6875 31.9613 44.4735 31.4446 44.0926 31.0637C43.7117 30.6828 43.195 30.4687 42.6563 30.4687Z" fill="url(#paint3_linear_42_185)"/>
<defs>
<linearGradient id="paint0_linear_42_185" x1="32.5" y1="4.0625" x2="32.5" y2="60.9375" gradientUnits="userSpaceOnUse">
<stop stop-color="#0090E8"/>
<stop offset="1" stop-color="#0DE3FF"/>
</linearGradient>
<linearGradient id="paint1_linear_42_185" x1="22.3444" y1="10.1569" x2="22.3444" y2="54.8444" gradientUnits="userSpaceOnUse">
<stop stop-color="#0090E8"/>
<stop offset="1" stop-color="#0DE3FF"/>
</linearGradient>
<linearGradient id="paint2_linear_42_185" x1="31.061" y1="20.9037" x2="33.939" y2="23.7817" gradientUnits="userSpaceOnUse">
<stop stop-color="#0090E8"/>
<stop offset="1" stop-color="#0DE3FF"/>
</linearGradient>
<linearGradient id="paint3_linear_42_185" x1="41.641" y1="10.1569" x2="41.641" y2="54.8437" gradientUnits="userSpaceOnUse">
<stop stop-color="#0090E8"/>
<stop offset="1" stop-color="#0DE3FF"/>
</linearGradient>
</defs>
</svg>
