<svg width="23" height="23" viewBox="0 0 23 23" fill="none" xmlns="http://www.w3.org/2000/svg">
<g clip-path="url(#clip0_97_179)">
<path d="M11.6177 -8.38797e-05C5.16477 -0.0333022 -0.0145666 5.1017 3.078e-05 11.5036C0.0155405 18.0854 5.41383 23.0783 11.4772 22.999C17.7869 23.0848 22.9024 17.8778 22.9982 11.6928C23.0967 5.35637 18.0013 0.0331344 11.6177 -8.38797e-05ZM11.355 21.4996C5.98039 21.4534 1.53458 16.9653 1.53367 11.4953C1.51268 6.15822 5.81435 1.50028 11.5146 1.51873C17.1711 1.53626 21.4792 6.04011 21.481 11.5174C21.4819 17.207 16.7998 21.554 11.355 21.4996Z" fill="#0DE3FF"/>
<path d="M17.6127 5.80762H5.38734C4.67116 5.80762 4.43213 6.04845 4.43213 6.77095C4.43213 9.7852 4.43213 12.7995 4.43213 15.8137C4.43213 16.5593 4.66386 16.7854 5.4211 16.7854C7.44284 16.7854 9.46488 16.7854 11.4872 16.7854C13.54 16.7854 15.5924 16.7854 17.6446 16.7854C18.3316 16.7854 18.6007 16.5085 18.6007 15.8045C18.6007 12.8056 18.6007 9.80704 18.6007 6.80878C18.6025 6.07613 18.338 5.80762 17.6127 5.80762ZM16.6547 7.33935C15.8108 8.00003 15.0535 8.59796 14.289 9.19127C13.4104 9.87409 12.5291 10.5514 11.6505 11.2342C11.5192 11.3357 11.4261 11.4584 11.2281 11.3016C9.60234 10.0171 7.96743 8.74467 6.33709 7.46577C6.30789 7.4427 6.29603 7.39564 6.26501 7.33935H16.6547ZM16.631 15.285C13.1951 15.2739 9.75865 15.2721 6.32158 15.2795C6.10262 15.2795 5.91011 15.3108 5.91285 14.9666C5.92745 13.0603 5.92197 11.1539 5.92471 9.24571C5.92471 9.22265 5.94934 9.19866 5.98949 9.12668C6.75129 9.71723 7.50488 10.3004 8.25664 10.8882C9.09782 11.5452 9.93443 12.2077 10.7774 12.8619C11.2546 13.231 11.5556 13.2208 12.0437 12.8425C13.6251 11.6184 15.2035 10.3936 16.7788 9.16821C16.8481 9.11469 16.9193 9.06301 16.9841 9.01503C17.109 9.09162 17.0625 9.19958 17.0625 9.27616C17.0625 11.1364 17.0552 12.9975 17.0735 14.8568C17.0771 15.2176 16.9585 15.2859 16.631 15.285Z" fill="#0DE3FF"/>
</g>
<defs>
<clipPath id="clip0_97_179">
<rect width="23" height="23" fill="white"/>
</clipPath>
</defs>
</svg>
