<svg width="60" height="60" viewBox="0 0 60 60" fill="none" xmlns="http://www.w3.org/2000/svg">
<path d="M30.7371 22.5363C29.1983 22.3844 27.6501 22.7117 26.3045 23.4736C24.959 24.2355 23.8818 25.3947 23.2205 26.7924C22.5592 28.1902 22.3461 29.7582 22.6103 31.2817C22.8746 32.8053 23.6033 34.2099 24.6967 35.3033C25.7901 36.3967 27.1947 37.1254 28.7183 37.3897C30.2418 37.6539 31.8098 37.4408 33.2075 36.7795C34.6053 36.1182 35.7645 35.041 36.5264 33.6954C37.2883 32.3499 37.6156 30.8017 37.4637 29.2629C37.2904 27.5379 36.526 25.9258 35.3001 24.6999C34.0742 23.4739 32.4621 22.7096 30.7371 22.5363V22.5363ZM48.7957 30C48.7909 30.8152 48.731 31.6292 48.6164 32.4363L53.9145 36.5918C54.1452 36.783 54.3006 37.0499 54.3532 37.3449C54.4057 37.6399 54.352 37.944 54.2016 38.2031L49.1895 46.875C49.0372 47.1317 48.7993 47.3263 48.5176 47.4247C48.2359 47.5231 47.9285 47.5189 47.6496 47.4129L42.3879 45.2941C42.0977 45.1786 41.7834 45.1369 41.4732 45.1727C41.1629 45.2085 40.8664 45.3207 40.6102 45.4992C39.8071 46.0522 38.9633 46.5435 38.0859 46.9687C37.8101 47.1028 37.5715 47.3027 37.3913 47.5508C37.211 47.799 37.0946 48.0876 37.0523 48.3914L36.2637 54.0035C36.2119 54.2999 36.0587 54.5691 35.8305 54.7651C35.6022 54.9611 35.3129 55.0718 35.0121 55.0781H24.9879C24.692 55.073 24.4068 54.9673 24.179 54.7783C23.9513 54.5894 23.7948 54.3285 23.7351 54.0387L22.9476 48.4348C22.9034 48.1277 22.784 47.8362 22.6 47.5864C22.416 47.3366 22.1731 47.1361 21.893 47.0027C21.0166 46.5797 20.1757 46.0871 19.3781 45.5297C19.1228 45.352 18.8272 45.2407 18.5181 45.2057C18.209 45.1707 17.896 45.2132 17.6074 45.3293L12.3469 47.4469C12.0681 47.553 11.7608 47.5574 11.4791 47.4592C11.1974 47.361 10.9594 47.1666 10.807 46.9102L5.79491 38.2383C5.64422 37.9792 5.59037 37.675 5.64295 37.38C5.69553 37.0849 5.85112 36.818 6.08202 36.627L10.5598 33.1113C10.8051 32.9166 10.9979 32.6637 11.1207 32.3755C11.2434 32.0874 11.2923 31.7732 11.2629 31.4613C11.2207 30.9727 11.1949 30.4852 11.1949 29.9965C11.1949 29.5078 11.2195 29.0273 11.2629 28.5492C11.2891 28.2393 11.2378 27.9277 11.1137 27.6425C10.9895 27.3574 10.7963 27.1076 10.5516 26.9156L6.07616 23.4C5.849 23.2079 5.69669 22.942 5.64591 22.6489C5.59513 22.3558 5.64912 22.0542 5.79843 21.7969L10.8105 13.125C10.9627 12.8683 11.2007 12.6737 11.4824 12.5753C11.7641 12.4769 12.0715 12.4811 12.3504 12.5871L17.6121 14.7059C17.9023 14.8214 18.2166 14.8631 18.5268 14.8273C18.8371 14.7915 19.1336 14.6793 19.3898 14.5008C20.1929 13.9478 21.0367 13.4565 21.9141 13.0312C22.1899 12.8972 22.4285 12.6973 22.6087 12.4492C22.789 12.201 22.9054 11.9124 22.9476 11.6086L23.7363 5.99648C23.7881 5.7001 23.9412 5.4309 24.1695 5.23489C24.3978 5.03889 24.6871 4.92824 24.9879 4.92188H35.0121C35.308 4.92699 35.5932 5.03274 35.821 5.22168C36.0487 5.41063 36.2052 5.6715 36.2648 5.96133L37.0523 11.5652C37.0966 11.8723 37.216 12.1638 37.4 12.4136C37.584 12.6634 37.8269 12.8639 38.107 12.9973C38.9833 13.4203 39.8243 13.9129 40.6219 14.4703C40.8772 14.648 41.1728 14.7593 41.4819 14.7943C41.791 14.8293 42.104 14.7868 42.3926 14.6707L47.6531 12.5531C47.9319 12.447 48.2392 12.4426 48.5209 12.5408C48.8026 12.639 49.0406 12.8334 49.193 13.0898L54.2051 21.7617C54.3558 22.0208 54.4096 22.325 54.357 22.62C54.3045 22.9151 54.1489 23.182 53.918 23.373L49.4402 26.8887C49.1939 27.0828 48.9999 27.3354 48.8761 27.6236C48.7523 27.9118 48.7025 28.2263 48.7312 28.5387C48.7699 29.0238 48.7957 29.5113 48.7957 30Z" stroke="url(#paint0_linear_42_196)" stroke-width="6" stroke-linecap="round" stroke-linejoin="round"/>
<defs>
<linearGradient id="paint0_linear_42_196" x1="30" y1="4.92187" x2="30" y2="55.0781" gradientUnits="userSpaceOnUse">
<stop stop-color="#0090E8"/>
<stop offset="1" stop-color="#0DE3FF"/>
</linearGradient>
</defs>
</svg>
