<svg width="23" height="23" viewBox="0 0 23 23" fill="none" xmlns="http://www.w3.org/2000/svg">
<g clip-path="url(#clip0_97_191)">
<path d="M11.6177 -8.38797e-05C5.16477 -0.0333022 -0.0145666 5.1017 3.078e-05 11.5036C0.0155405 18.0855 5.41383 23.0784 11.4772 22.999C17.7869 23.0848 22.9024 17.8778 22.9982 11.6928C23.0967 5.35637 18.0013 0.0331345 11.6177 -8.38797e-05ZM11.355 21.4996C5.98039 21.4534 1.53458 16.9653 1.53367 11.4953C1.51268 6.15823 5.81435 1.50028 11.5146 1.51873C17.1711 1.53626 21.4792 6.04012 21.481 11.5174C21.4819 17.207 16.7998 21.554 11.355 21.4996Z" fill="#0DE3FF"/>
<path d="M11.532 18.8569H11.5037C11.4791 18.807 11.459 18.7535 11.4298 18.7055C10.1818 16.6497 8.93491 14.5938 7.68926 12.538C7.40461 12.0656 7.09168 11.5959 6.89279 11.0856C6.28426 9.52436 6.39648 7.99447 7.27232 6.5587C8.05328 5.27795 9.19553 4.50285 10.6635 4.22972C10.8578 4.19374 11.0549 4.17159 11.2501 4.13745H11.8751C11.9152 4.15117 11.9564 4.16136 11.9982 4.1679C12.8243 4.23228 13.6178 4.52146 14.2946 5.00482C15.882 6.14901 16.6274 7.71119 16.4751 9.68953C16.414 10.4463 16.1744 11.1773 15.7762 11.821C14.3773 14.1273 12.9784 16.4341 11.5795 18.7415C11.5604 18.7785 11.5445 18.8171 11.532 18.8569ZM14.6887 9.20232C14.7143 7.46021 13.2755 5.95431 11.4581 5.97276C10.6112 5.97276 9.79904 6.31302 9.20021 6.91868C8.60137 7.52434 8.26495 8.34579 8.26495 9.20232C8.26495 10.0589 8.60137 10.8803 9.20021 11.486C9.79904 12.0916 10.6112 12.4319 11.4581 12.4319C13.2755 12.4494 14.7143 10.9435 14.6887 9.20232Z" fill="#0DE3FF"/>
</g>
<defs>
<clipPath id="clip0_97_191">
<rect width="23" height="23" fill="white"/>
</clipPath>
</defs>
</svg>
