<svg width="65" height="65" viewBox="0 0 65 65" fill="none" xmlns="http://www.w3.org/2000/svg">
<path d="M4.0625 4.0625V58.9062C4.0625 59.445 4.27651 59.9616 4.65744 60.3426C5.03837 60.7235 5.55503 60.9375 6.09375 60.9375H60.9375" stroke="url(#paint0_linear_40_161)" stroke-width="4" stroke-linecap="round" stroke-linejoin="round"/>
<path d="M19.8047 28.4375H14.7266C13.3243 28.4375 12.1875 29.5743 12.1875 30.9766V50.2734C12.1875 51.6757 13.3243 52.8125 14.7266 52.8125H19.8047C21.207 52.8125 22.3438 51.6757 22.3438 50.2734V30.9766C22.3438 29.5743 21.207 28.4375 19.8047 28.4375Z" stroke="url(#paint1_linear_40_161)" stroke-width="4" stroke-linecap="round" stroke-linejoin="round"/>
<path d="M38.0859 22.3438H33.0078C31.6055 22.3438 30.4688 23.4805 30.4688 24.8828V50.2734C30.4688 51.6757 31.6055 52.8125 33.0078 52.8125H38.0859C39.4882 52.8125 40.625 51.6757 40.625 50.2734V24.8828C40.625 23.4805 39.4882 22.3438 38.0859 22.3438Z" stroke="url(#paint2_linear_40_161)" stroke-width="4" stroke-linecap="round" stroke-linejoin="round"/>
<path d="M56.3215 14.2188H51.2433C49.8411 14.2188 48.7043 15.3555 48.7043 16.7578V50.2734C48.7043 51.6757 49.8411 52.8125 51.2433 52.8125H56.3215C57.7238 52.8125 58.8605 51.6757 58.8605 50.2734V16.7578C58.8605 15.3555 57.7238 14.2188 56.3215 14.2188Z" stroke="url(#paint3_linear_40_161)" stroke-width="4" stroke-linecap="round" stroke-linejoin="round"/>
<defs>
<linearGradient id="paint0_linear_40_161" x1="32.5" y1="4.0625" x2="32.5" y2="60.9375" gradientUnits="userSpaceOnUse">
<stop stop-color="#0090E8"/>
<stop offset="1" stop-color="#0DE3FF"/>
</linearGradient>
<linearGradient id="paint1_linear_40_161" x1="17.2656" y1="28.4375" x2="17.2656" y2="52.8125" gradientUnits="userSpaceOnUse">
<stop stop-color="#0090E8"/>
<stop offset="1" stop-color="#0DE3FF"/>
</linearGradient>
<linearGradient id="paint2_linear_40_161" x1="35.5469" y1="22.3437" x2="35.5469" y2="52.8125" gradientUnits="userSpaceOnUse">
<stop stop-color="#0090E8"/>
<stop offset="1" stop-color="#0DE3FF"/>
</linearGradient>
<linearGradient id="paint3_linear_40_161" x1="53.7824" y1="14.2188" x2="53.7824" y2="52.8125" gradientUnits="userSpaceOnUse">
<stop stop-color="#0090E8"/>
<stop offset="1" stop-color="#0DE3FF"/>
</linearGradient>
</defs>
</svg>
