<svg width="65" height="65" viewBox="0 0 65 65" fill="none" xmlns="http://www.w3.org/2000/svg">
<path d="M59.9767 6.85025C59.9546 6.7433 59.9024 6.6449 59.8263 6.56664C59.7501 6.48838 59.6533 6.4335 59.547 6.40847C52.4661 4.67522 36.1089 10.851 27.2375 19.7232C25.6565 21.2925 24.2148 22.9966 22.9288 24.816C20.1944 24.5684 17.4599 24.7769 15.1317 25.7934C8.55732 28.6865 6.64451 36.2424 6.11064 39.486C6.08172 39.6638 6.09407 39.8458 6.14675 40.018C6.19942 40.1901 6.29101 40.3479 6.4144 40.4789C6.5378 40.61 6.68969 40.7108 6.8583 40.7737C7.02692 40.8365 7.20773 40.8597 7.38672 40.8413L17.943 39.6815C17.9503 40.4784 17.9981 41.2743 18.0862 42.0663C18.1413 42.6138 18.3854 43.1248 18.7764 43.5116L22.8637 47.6023C23.2505 47.9939 23.7616 48.2381 24.3091 48.293C25.0957 48.3808 25.8862 48.4286 26.6776 48.4363L25.52 58.9922C25.502 59.1711 25.5252 59.3517 25.5881 59.5202C25.6509 59.6887 25.7516 59.8404 25.8823 59.9638C26.0131 60.0871 26.1704 60.1786 26.3422 60.2314C26.514 60.2841 26.6956 60.2967 26.8729 60.268C30.1152 59.7467 37.6805 57.8323 40.5543 51.2538C41.57 48.9211 41.7783 46.1987 41.5439 43.4751C43.3672 42.1892 45.0747 40.7463 46.6469 39.1628C55.5508 30.3011 61.6825 14.2902 59.9767 6.85025ZM38.7326 27.683C37.9549 26.9049 37.4253 25.9133 37.2106 24.8339C36.996 23.7544 37.106 22.6355 37.5268 21.6186C37.9476 20.6017 38.6602 19.7326 39.5746 19.1211C40.489 18.5096 41.564 18.1832 42.6637 18.1832C43.7635 18.1832 44.8385 18.5096 45.7529 19.1211C46.6673 19.7326 47.3799 20.6017 47.8007 21.6186C48.2215 22.6355 48.3315 23.7544 48.1169 24.8339C47.9022 25.9133 47.3726 26.9049 46.5948 27.683C46.079 28.2004 45.4663 28.6109 44.7917 28.8909C44.1172 29.171 43.394 29.3151 42.6637 29.3151C41.9335 29.3151 41.2103 29.171 40.5358 28.8909C39.8612 28.6109 39.2485 28.2004 38.7326 27.683V27.683Z" stroke="url(#paint0_linear_33_34)" stroke-width="6" stroke-linecap="round" stroke-linejoin="round"/>
<path d="M14.12 45.7101C12.8219 45.8696 11.6143 46.4585 10.6889 47.3834C8.39458 49.6874 8.17712 58.2207 8.17712 58.2207C8.17712 58.2207 16.7086 58.0031 19.0043 55.7042C19.9321 54.7795 20.5216 53.5689 20.6775 52.2677" stroke="url(#paint1_linear_33_34)" stroke-width="6" stroke-linecap="round" stroke-linejoin="round"/>
<defs>
<linearGradient id="paint0_linear_33_34" x1="33.1787" y1="6.11633" x2="33.1787" y2="60.283" gradientUnits="userSpaceOnUse">
<stop stop-color="#0090E8"/>
<stop offset="1" stop-color="#0DE3FF"/>
</linearGradient>
<linearGradient id="paint1_linear_33_34" x1="14.4273" y1="45.7101" x2="14.4273" y2="58.2207" gradientUnits="userSpaceOnUse">
<stop stop-color="#0090E8"/>
<stop offset="1" stop-color="#0DE3FF"/>
</linearGradient>
</defs>
</svg>
