<svg width="70" height="70" viewBox="0 0 70 70" fill="none" xmlns="http://www.w3.org/2000/svg">
<path d="M51.156 13.1631C50.9312 13.1637 50.7104 13.1036 50.5166 12.9891C45.1828 10.1181 40.5713 8.90014 35.0427 8.90014C29.5418 8.90014 24.3186 10.2631 19.5676 12.9891C18.8958 13.371 18.0677 13.1051 17.6783 12.4043C17.5045 12.066 17.4653 11.6739 17.5686 11.3077C17.672 10.9414 17.9102 10.6284 18.2348 10.4323C23.3587 7.51053 29.152 5.98287 35.0427 6.00014C40.9595 6.00014 46.1275 7.36314 51.7954 10.4081C52.1261 10.5909 52.3723 10.8968 52.4813 11.26C52.5903 11.6233 52.5533 12.015 52.3783 12.3511C52.2731 12.5898 52.102 12.7931 51.8854 12.937C51.6688 13.081 51.4156 13.1594 51.156 13.1631ZM11.3998 28.3881C11.1111 28.386 10.8301 28.2949 10.5946 28.1271C10.2882 27.8982 10.0821 27.5586 10.0198 27.1799C9.95745 26.8013 10.0437 26.4131 10.2605 26.0971C13.0115 22.0371 16.5101 18.8471 20.6793 16.6141C29.4024 11.921 40.5713 11.8871 49.322 16.5851C53.49 18.8181 56.9898 21.9791 59.7409 26.0101C59.9567 26.3264 60.0425 26.7143 59.9802 27.0927C59.9179 27.4711 59.7124 27.8106 59.4068 28.0401C59.2585 28.1515 59.089 28.2312 58.9089 28.2741C58.7287 28.3171 58.5417 28.3224 58.3595 28.2898C58.1772 28.2572 58.0035 28.1873 57.8492 28.0845C57.6948 27.9817 57.5631 27.8481 57.4622 27.6921C54.9623 24.0381 51.7954 21.1671 48.0444 19.1661C40.0713 14.9031 29.8748 14.9031 21.9293 19.1951C18.1506 21.2251 14.9837 24.1251 12.4839 27.7743C12.3761 27.9663 12.2181 28.125 12.027 28.2332C11.8359 28.3414 11.619 28.395 11.3998 28.3881ZM28.763 63.3958C28.5794 63.3976 28.3976 63.3597 28.2298 63.2846C28.0621 63.2096 27.9123 63.0992 27.7907 62.9608C25.3738 60.433 24.0638 58.8042 22.2069 55.3C20.2839 51.733 19.29 47.383 19.29 42.7141C19.29 34.1011 26.3461 27.0831 35.0151 27.0831C43.6841 27.0831 50.745 34.1011 50.745 42.7141C50.7505 42.9009 50.7186 43.0869 50.6512 43.2611C50.5839 43.4353 50.4825 43.5941 50.353 43.7282C50.2235 43.8623 50.0686 43.9689 49.8973 44.0417C49.7261 44.1145 49.5421 44.152 49.3562 44.152C49.1704 44.152 48.9864 44.1145 48.8151 44.0417C48.6439 43.9689 48.489 43.8623 48.3595 43.7282C48.23 43.5941 48.1286 43.4353 48.0612 43.2611C47.9939 43.0869 47.962 42.9009 47.9675 42.7141C47.9675 35.6961 42.1601 29.9831 35.0211 29.9831C27.8821 29.9831 22.0687 35.6961 22.0687 42.7141C22.0687 46.89 22.9569 50.747 24.6515 53.879C26.4302 57.214 27.6561 58.635 29.7918 60.897C30.0451 61.1785 30.1853 61.5445 30.1853 61.9241C30.1853 62.3037 30.0451 62.6697 29.7918 62.9512C29.5191 63.2278 29.1503 63.3872 28.763 63.3958ZM48.6838 58.0308C45.3775 58.0308 42.4606 57.1608 40.0713 55.4499C38.0357 54.0154 36.3727 52.1102 35.2224 49.8946C34.072 47.6791 33.468 45.2181 33.4611 42.7189C33.4533 42.5306 33.4835 42.3426 33.5498 42.1663C33.6161 41.99 33.7172 41.829 33.8469 41.693C33.9767 41.557 34.1325 41.4487 34.305 41.3748C34.4774 41.3008 34.663 41.2627 34.8504 41.2627C35.0379 41.2627 35.2234 41.3008 35.3959 41.3748C35.5683 41.4487 35.7241 41.557 35.8539 41.693C35.9837 41.829 36.0848 41.99 36.1511 42.1663C36.2174 42.3426 36.2476 42.5306 36.2398 42.7189C36.2444 44.7489 36.7369 46.7477 37.6752 48.5452C38.6135 50.3428 39.9699 51.8857 41.6289 53.0429C43.6012 54.4349 45.9075 55.097 48.6862 55.097C49.654 55.0797 50.6187 54.9827 51.5707 54.807C52.3206 54.662 53.0429 55.184 53.1811 55.996C53.2516 56.3708 53.1713 56.7583 52.9579 57.0736C52.7446 57.3889 52.4155 57.6063 52.043 57.678C50.9363 57.8978 49.8118 58.0143 48.6838 58.026V58.0308ZM43.0988 64C42.9767 63.9949 42.8557 63.9754 42.7382 63.942C38.3202 62.666 35.4309 60.955 32.4023 57.852C28.5118 53.821 26.3737 48.456 26.3737 42.7141C26.3737 38.0161 30.2077 34.1881 34.9298 34.1881C39.6519 34.1881 43.487 38.0161 43.487 42.7141C43.487 45.817 46.071 48.34 49.2655 48.34C52.46 48.34 55.044 45.817 55.044 42.7141C55.044 31.7811 46.0145 22.9071 34.9021 22.9071C27.0119 22.9071 19.7888 27.4891 16.5389 34.5941C15.4573 36.9431 14.8996 39.6981 14.8996 42.7141C14.8996 44.976 15.0931 48.543 16.7601 53.183C17.0389 53.937 16.6772 54.778 15.9548 55.039C15.7832 55.1047 15.6001 55.1349 15.4165 55.1277C15.233 55.1205 15.0528 55.076 14.8868 54.997C14.7207 54.918 14.5723 54.8061 14.4504 54.6679C14.3285 54.5298 14.2356 54.3683 14.1773 54.1932C12.8368 50.516 12.1501 46.6304 12.1486 42.7141C12.1486 39.2341 12.788 36.0682 14.0379 33.3181C17.7336 25.2223 25.9291 19.9781 34.9021 19.9781C47.5432 19.9781 57.8227 30.1571 57.8227 42.6851C57.8227 47.383 53.9888 51.211 49.2655 51.211C44.5422 51.211 40.7083 47.383 40.7083 42.6851C40.7095 39.5821 38.1255 37.0542 34.931 37.0542C31.7364 37.0542 29.1524 39.5772 29.1524 42.6802C29.1524 47.6344 30.9865 52.2792 34.3481 55.7592C36.9921 58.4852 39.516 59.9883 43.4329 61.1242C44.1828 61.3272 44.5999 62.1392 44.4052 62.8932C44.3445 63.1992 44.1822 63.4755 43.9448 63.6766C43.7074 63.8777 43.4091 63.9918 43.0988 64Z" fill="url(#paint0_linear_33_38)"/>
<defs>
<linearGradient id="paint0_linear_33_38" x1="35" y1="6" x2="35" y2="64" gradientUnits="userSpaceOnUse">
<stop stop-color="#0090E8"/>
<stop offset="1" stop-color="#0DE3FF"/>
</linearGradient>
</defs>
</svg>
