<svg width="65" height="65" viewBox="0 0 65 65" fill="none" xmlns="http://www.w3.org/2000/svg">
<path d="M32.4568 14.2188C22.5621 14.2188 12.4122 19.9456 4.42178 31.3993C4.1937 31.7298 4.06871 32.1206 4.06261 32.5221C4.05651 32.9236 4.16957 33.318 4.3875 33.6553C10.527 43.2656 20.541 50.7812 32.4568 50.7812C44.2432 50.7812 54.4629 43.2428 60.6138 33.6108C60.8266 33.2801 60.9398 32.8952 60.9398 32.5019C60.9398 32.1086 60.8266 31.7237 60.6138 31.393C54.4489 21.8715 44.1543 14.2188 32.4568 14.2188Z" stroke="url(#paint0_linear_40_173)" stroke-width="6" stroke-linecap="round" stroke-linejoin="round"/>
<path d="M32.5 42.6562C38.1091 42.6562 42.6562 38.1091 42.6562 32.5C42.6562 26.8909 38.1091 22.3438 32.5 22.3438C26.8909 22.3438 22.3438 26.8909 22.3438 32.5C22.3438 38.1091 26.8909 42.6562 32.5 42.6562Z" stroke="url(#paint1_linear_40_173)" stroke-width="6" stroke-miterlimit="10"/>
<defs>
<linearGradient id="paint0_linear_40_173" x1="32.5011" y1="14.2188" x2="32.5011" y2="50.7812" gradientUnits="userSpaceOnUse">
<stop stop-color="#0090E8"/>
<stop offset="1" stop-color="#0DE3FF"/>
</linearGradient>
<linearGradient id="paint1_linear_40_173" x1="32.5" y1="22.3438" x2="32.5" y2="42.6562" gradientUnits="userSpaceOnUse">
<stop stop-color="#0090E8"/>
<stop offset="1" stop-color="#0DE3FF"/>
</linearGradient>
</defs>
</svg>
