<svg xmlns="http://www.w3.org/2000/svg" viewBox="0 0 239.58 70.26"><defs><style>.cls-1{fill:#0090e8;}</style></defs><title>Asset 1@2x-9</title><g id="Layer_2" data-name="Layer 2"><g id="Capa_1" data-name="Capa 1"><path class="cls-1" d="M58.72,19.33A33.23,33.23,0,0,0,51.86,14a31.39,31.39,0,0,0-16-4.36C20.58,9.67,9.35,20.58,9.35,35.24a25.24,25.24,0,0,0,7.18,17.14c5.3,5.31,11.84,7.8,20.37,7.8,12.68,0,21.2-5.92,24.32-16.84H43.76V34.51H71.3c0,7.38-.31,10-2.29,14.76a30.53,30.53,0,0,1-7.38,11c-6.54,6.45-13.72,9.15-24.94,9.15-10.91,0-20-3.53-26.71-10.5A35,35,0,0,1,0,34.82C0,15.69,15.49.52,34.92.52A43.29,43.29,0,0,1,51.34,3.43c5.31,2.18,8,4.05,13.93,9.46Z"/><polygon class="cls-1" points="118.07 2.6 118.07 11.43 90.94 11.43 90.94 27.54 118.07 27.54 118.07 36.27 90.94 36.27 90.94 58.52 118.07 58.52 118.07 67.25 82.22 67.25 82.22 2.6 118.07 2.6"/><polygon class="cls-1" points="175.76 49.16 175.76 2.6 184.59 2.6 184.59 70.26 136.78 21.31 136.78 67.25 127.95 67.25 127.95 0 175.76 49.16"/><polygon class="cls-1" points="239.57 2.6 208.71 58.52 238.95 58.52 238.95 67.25 194.36 67.25 225.02 11.43 195.92 11.43 195.92 2.6 239.57 2.6"/></g></g></svg>