<svg width="194" height="57" viewBox="0 0 194 57" fill="none" xmlns="http://www.w3.org/2000/svg">
<path d="M47.5485 15.682C45.8938 14.0033 44.0262 12.5495 41.9937 11.3579C38.0696 9.0366 33.5947 7.81492 29.0376 7.82078C16.6647 7.84511 7.57117 16.6961 7.57117 28.5894C7.67357 33.7965 9.75262 38.7689 13.3852 42.4946C17.6769 46.8024 22.9726 48.8225 29.8798 48.8225C40.1474 48.8225 47.0465 44.0198 49.5729 35.1607H35.4347V27.9971H57.7352C57.7352 33.9843 57.4842 36.1098 55.8809 39.9715C54.5648 43.3485 52.5248 46.3949 49.9049 48.8955C44.6091 54.1282 38.7951 56.3186 29.7097 56.3186C20.8754 56.3186 13.5147 53.4548 8.08131 47.8003C2.97361 42.5698 0.0785752 35.5656 0 28.2486C0 12.729 12.543 0.421971 28.2765 0.421971C32.8193 0.338143 37.3351 1.13995 41.5726 2.78277C45.8724 4.55135 48.0506 6.06843 52.8524 10.4574L47.5485 15.682Z" fill="white"/>
<path d="M95.6072 2.10938V9.27291H73.6387V22.3425H95.6072V29.4249H73.6387V47.4757H95.6072V54.5581H66.5777V2.10938H95.6072Z" fill="white"/>
<path d="M142.322 39.8821V2.10931H149.472V57L110.758 17.2882V54.5581H103.608V0L142.322 39.8821Z" fill="white"/>
<path d="M193.992 2.10938L169.003 47.4757H193.49V54.5581H157.383L182.21 9.27291H158.646V2.10938H193.992Z" fill="white"/>
</svg>
